<svg width="472" height="536" viewBox="0 0 472 536" fill="none" xmlns="http://www.w3.org/2000/svg">
<g clip-path="url(#clip0_957_1447)">
<path d="M303.222 396.304C304.281 396.869 305.488 397.096 306.679 396.953C307.871 396.809 308.99 396.303 309.884 395.503C310.778 394.703 311.405 393.647 311.679 392.478C311.954 391.31 311.862 390.086 311.417 388.971C311.536 388.378 311.622 387.952 311.741 387.359C314.031 385.222 316.907 383.817 320 383.325C323.094 382.832 326.264 383.275 329.104 384.596C331.944 385.917 334.325 388.057 335.942 390.74C337.558 393.423 338.336 396.527 338.177 399.656C337.452 417.298 338.324 436.336 326.597 450.559C380.117 406.825 404.52 332.322 388.176 265.313C380.156 254.138 376.415 239.292 380.011 225.839C384.524 230.229 393.322 229.05 391.978 221.451C391.256 218.448 390.51 215.454 389.789 212.451C420.614 200.422 428.662 246.256 392.148 264.918C395.11 277.658 396.732 290.672 396.988 303.749C401.11 291.957 407.973 281.313 417.012 272.691C425.762 264.812 437.334 260.179 448.099 254.893C461.198 248.444 475.736 261.23 470.578 274.879C461.858 273.764 455.688 284.186 463.601 289.787C449.703 313.129 423.054 327.964 395.978 328.2C393.24 354.833 384.856 380.577 371.386 403.716C388.683 377.415 422.156 384.987 448.61 383.867C450.365 383.645 452.147 383.94 453.737 384.714C455.328 385.488 456.659 386.708 457.568 388.225C458.478 389.743 458.925 391.492 458.857 393.26C458.789 395.028 458.208 396.738 457.185 398.181C453.705 397.976 450.213 398.118 446.761 398.604C445.137 398.845 443.628 399.582 442.44 400.714C441.251 401.846 440.442 403.318 440.123 404.928C439.804 406.538 439.991 408.208 440.657 409.707C441.324 411.207 442.439 412.464 443.848 413.305C420.642 434.579 384.684 439.152 356.463 425.577C348.119 436.087 338.705 445.702 328.374 454.266L286.417 434.266C286.488 433.728 286.583 433.182 286.669 432.651C290.437 434.747 294.446 436.373 298.609 437.494C294.133 420.431 289.145 410.436 303.221 396.304H303.222Z" fill="#F1F5F9"/>
<path d="M229.084 355.941C228.317 356.864 227.285 357.529 226.127 357.846C224.969 358.163 223.742 358.116 222.612 357.712C221.482 357.308 220.503 356.567 219.809 355.588C219.114 354.61 218.737 353.441 218.728 352.241C218.394 351.737 218.154 351.375 217.82 350.87C214.893 349.755 211.7 349.538 208.649 350.249C205.599 350.96 202.83 352.566 200.698 354.861C198.566 357.156 197.168 360.035 196.683 363.13C196.198 366.224 196.648 369.393 197.976 372.23C205.302 388.296 211.676 406.256 227.901 415.005C161.838 394.69 111.135 334.895 100.996 266.671C104.208 253.297 102.073 238.136 93.6676 227.034C91.1436 232.801 82.5509 235.028 80.9298 227.483C80.465 224.43 80.0269 221.376 79.5619 218.322C46.4764 218.81 56.3117 264.294 97.1678 267.804C99.2299 280.72 102.636 293.385 107.332 305.592C99.0667 296.227 88.6961 288.957 77.0731 284.382C65.9966 280.385 53.5325 280.459 41.5688 279.624C27.0046 278.592 18.3636 295.917 28.2888 306.613C35.9437 302.291 45.5896 309.616 40.3738 317.788C62.0497 334.163 92.3262 337.851 117.491 327.856C130.073 351.489 147.548 372.169 168.751 388.517C142.811 370.683 114.667 390.323 89.7444 399.263C88.0355 399.72 86.4965 400.665 85.3152 401.982C84.1339 403.299 83.3614 404.931 83.0919 406.679C82.8224 408.428 83.0675 410.217 83.7974 411.828C84.5273 413.44 85.7104 414.804 87.2023 415.754C90.3483 414.253 93.6356 413.067 97.0159 412.215C98.6104 411.825 100.286 411.938 101.814 412.539C103.342 413.139 104.646 414.197 105.549 415.568C106.452 416.938 106.909 418.555 106.857 420.195C106.805 421.836 106.247 423.42 105.259 424.731C134.775 435.68 169.802 426.352 190.818 403.134C202.51 409.721 214.855 415.074 227.654 419.109L258.967 384.76C258.698 384.289 258.405 383.819 258.124 383.36C255.426 386.721 252.326 389.74 248.893 392.348C246.602 374.857 247.452 363.72 229.085 355.94L229.084 355.941Z" fill="#F1F5F9"/>
<path d="M237.143 210.798C238.337 210.677 239.465 210.192 240.374 209.409C241.284 208.626 241.93 207.582 242.226 206.419C242.523 205.256 242.454 204.03 242.031 202.907C241.607 201.784 240.848 200.819 239.857 200.141C239.625 199.583 239.459 199.181 239.227 198.623C239.937 195.571 241.541 192.802 243.834 190.668C246.128 188.535 249.006 187.135 252.101 186.648C255.195 186.162 258.364 186.61 261.202 187.936C264.04 189.262 266.417 191.405 268.029 194.091C277.264 209.141 288.602 224.459 286.797 242.804C306.842 176.659 285.561 101.205 234.632 54.691C221.744 49.8855 210.361 39.6473 205.846 26.4742C212.04 27.6017 218.686 21.7177 213.333 16.1592C211.06 14.0684 208.771 11.9991 206.498 9.90812C225.381 -17.2641 257.617 16.2979 237.71 52.1481C247.272 61.0722 255.875 70.9714 263.378 81.6845C260.226 69.5976 259.988 56.9351 262.684 44.7385C265.556 33.3187 272.578 23.021 278.567 12.6307C285.845 -0.0266495 305.043 2.48197 308.372 16.6887C300.511 20.6243 301.2 32.7168 310.892 32.9545C312.368 60.08 298.517 87.254 276.172 102.546C288.748 126.182 296.142 152.227 297.861 178.946C297.556 147.468 329.566 135.092 350.901 119.412C352.235 118.25 353.878 117.501 355.63 117.256C357.382 117.012 359.167 117.283 360.768 118.036C362.369 118.789 363.716 119.991 364.645 121.497C365.574 123.002 366.045 124.745 366 126.514C362.997 128.285 360.178 130.349 357.583 132.677C356.369 133.782 355.527 135.236 355.172 136.838C354.817 138.441 354.965 140.114 355.598 141.628C356.231 143.143 357.317 144.424 358.707 145.297C360.097 146.171 361.722 146.593 363.362 146.505C355.959 177.104 328.658 200.949 297.661 205.414C296.595 218.791 294.141 232.022 290.339 244.891L244.358 251.682C244.117 251.195 243.891 250.689 243.667 250.201C247.963 249.84 252.198 248.954 256.278 247.564C243.049 235.894 233.336 230.379 237.141 210.798L237.143 210.798Z" fill="#F1F5F9"/>
<path d="M283.389 196.054C262.455 196.054 251.101 193.496 247.135 188.036C243.636 183.218 245.982 176.861 248.698 169.5C250.65 164.21 252.863 158.214 252.863 152.279C252.863 123.415 267.499 108.779 296.363 108.779C310.724 108.779 326.144 116.408 337.611 129.187C348.036 140.804 353.23 154.708 351.86 167.333C350.736 177.687 345.917 184.496 336.693 188.763L336.153 189.012L336 188.438C335.204 185.466 333.855 182.671 332.026 180.197C331.848 184.08 330.869 187.884 329.151 191.371L329.053 191.569L328.84 191.63C318.4 194.604 306.01 195.41 296.382 195.779C291.696 195.961 287.365 196.053 283.389 196.054Z" fill="#0F172A"/>
<path d="M289.094 236.272C288.292 233.913 286.939 231.78 285.147 230.049C283.355 228.318 281.176 227.04 278.791 226.32C276.406 225.6 273.884 225.459 271.434 225.909C268.984 226.358 266.676 227.386 264.702 228.906L195.846 270.074L174.299 217.501C176.12 214.83 177.047 211.652 176.95 208.422C176.852 205.192 175.734 202.076 173.756 199.521C171.777 196.965 169.041 195.102 165.938 194.198C162.835 193.295 159.526 193.397 156.485 194.49C153.444 195.583 150.827 197.611 149.01 200.283C147.193 202.955 146.269 206.135 146.37 209.365C146.472 212.595 147.593 215.709 149.574 218.263C151.556 220.816 154.294 222.676 157.398 223.576C158.726 238.736 166.106 306.497 191.781 304.034C213.362 301.964 266.957 266.271 283.603 253.895C286.266 251.917 288.233 249.145 289.22 245.978C290.206 242.811 290.162 239.412 289.094 236.272Z" fill="#9F616A"/>
<path d="M340.983 535.279H281.053L271.003 485.589L267.743 535.279H212.073C212.094 496.257 214.127 457.262 218.163 418.449L218.853 416.099L219.943 412.339L220.633 409.979L232.153 370.419L233.063 367.279H302.433C306.425 371.029 310.107 375.096 313.443 379.439C314.573 380.879 315.753 382.439 316.963 384.119C317.803 385.309 318.673 386.559 319.543 387.869C327.272 399.377 333.05 412.081 336.643 425.469V425.479C337.253 427.769 337.793 430.113 338.263 432.509V432.519C338.683 434.649 339.053 436.809 339.343 439.019C339.563 440.629 339.753 442.259 339.893 443.909C340.727 453.05 340.434 462.259 339.023 471.329L340.983 535.279Z" fill="#0F172A"/>
<path d="M23.2338 80.9205C27.1258 79.4139 29.4313 75.9977 28.3832 73.2902C27.3352 70.5828 23.3304 69.6092 19.4384 71.1158C15.5464 72.6224 13.241 76.0386 14.289 78.7461C15.3371 81.4536 19.3418 82.4271 23.2338 80.9205Z" fill="#E6E6E6"/>
<path d="M72.2372 74.6353C76.1292 73.1287 78.4347 69.7126 77.3866 67.0051C76.3386 64.2976 72.3339 63.3241 68.4419 64.8307C64.5498 66.3373 62.2444 69.7534 63.2925 72.4609C64.3405 75.1684 68.3452 76.1419 72.2372 74.6353Z" fill="#3F3D56"/>
<path d="M18.9838 122.729C22.8758 121.222 25.1813 117.806 24.1333 115.099C23.0852 112.391 19.0805 111.418 15.1885 112.924C11.2965 114.431 8.99098 117.847 10.039 120.555C11.0871 123.262 15.0918 124.236 18.9838 122.729Z" fill="#FF6584"/>
<path d="M4.80749 141.17C6.59301 140.748 7.548 138.324 6.94048 135.758C6.33297 133.191 4.393 131.453 2.60748 131.875C0.82196 132.298 -0.132999 134.721 0.474514 137.288C1.08203 139.855 3.02196 141.593 4.80749 141.17Z" fill="#E6E6E6"/>
<path d="M4.51586 172.393C6.30138 171.97 7.25634 169.547 6.64883 166.98C6.04131 164.414 4.10138 162.675 2.31586 163.098C0.530334 163.521 -0.424625 165.944 0.182888 168.511C0.790402 171.077 2.73034 172.816 4.51586 172.393Z" fill="#3F3D56"/>
<path d="M47.5249 107.725C49.3104 107.302 50.2654 104.879 49.6579 102.312C49.0503 99.7456 47.1104 98.0075 45.3249 98.4301C43.5394 98.8527 42.5844 101.276 43.1919 103.843C43.7994 106.409 45.7394 108.148 47.5249 107.725Z" fill="#E6E6E6"/>
<path d="M21.7161 101.457C23.5016 101.035 24.4565 98.6114 23.849 96.0447C23.2415 93.478 21.3016 91.7399 19.5161 92.1625C17.7305 92.5851 16.7756 95.0085 17.3831 97.5751C17.9906 100.142 19.9305 101.88 21.7161 101.457Z" fill="#FF6584"/>
<path d="M49.0715 72.7054C50.857 72.2828 51.812 69.8594 51.2045 67.2927C50.597 64.7261 48.657 62.9879 46.8715 63.4106C45.086 63.8332 44.131 66.2565 44.7385 68.8232C45.3461 71.3899 47.286 73.128 49.0715 72.7054Z" fill="#3F3D56"/>
<path d="M61.794 288.803C63.6758 286.592 62.6251 282.607 59.4471 279.902C56.2691 277.197 52.1673 276.796 50.2854 279.007C48.4036 281.218 49.4543 285.203 52.6324 287.908C55.8104 290.613 59.9122 291.014 61.794 288.803Z" fill="#E6E6E6"/>
<path d="M32.9334 248.705C34.8152 246.495 33.7645 242.509 30.5865 239.804C27.4085 237.099 23.3067 236.698 21.4248 238.909C19.543 241.12 20.5937 245.105 23.7718 247.81C26.9498 250.515 31.0516 250.916 32.9334 248.705Z" fill="#3F3D56"/>
<path d="M100.582 272.633C102.464 270.422 101.413 266.437 98.2354 263.732C95.0574 261.027 90.9556 260.626 89.0737 262.837C87.1919 265.048 88.2427 269.033 91.4207 271.738C94.5987 274.443 98.7005 274.844 100.582 272.633Z" fill="#FF6584"/>
<path d="M119.852 273.076C121.82 271.32 122.424 268.786 121.202 267.417C119.981 266.048 117.395 266.362 115.427 268.119C113.459 269.875 112.855 272.409 114.076 273.777C115.298 275.146 117.884 274.832 119.852 273.076Z" fill="#E6E6E6"/>
<path d="M147.447 258.467C149.414 256.71 150.019 254.177 148.797 252.808C147.576 251.439 144.99 251.753 143.022 253.509C141.054 255.266 140.45 257.799 141.671 259.168C142.893 260.537 145.479 260.223 147.447 258.467Z" fill="#3F3D56"/>
<path d="M70.1001 251.437C72.0679 249.681 72.6727 247.147 71.4508 245.778C70.229 244.41 67.6434 244.724 65.6756 246.48C63.7078 248.236 63.103 250.77 64.3248 252.139C65.5466 253.508 68.1323 253.194 70.1001 251.437Z" fill="#E6E6E6"/>
<path d="M76.8777 277.117C78.8455 275.361 79.4502 272.827 78.2284 271.458C77.0066 270.089 74.4209 270.403 72.4531 272.16C70.4854 273.916 69.8806 276.45 71.1024 277.818C72.3242 279.187 74.9099 278.873 76.8777 277.117Z" fill="#FF6584"/>
<path d="M38.57 266.752C40.5378 264.995 41.1425 262.462 39.9207 261.093C38.6989 259.724 36.1132 260.038 34.1454 261.794C32.1776 263.551 31.5729 266.084 32.7947 267.453C34.0165 268.822 36.6022 268.508 38.57 266.752Z" fill="#3F3D56"/>
<path d="M255.68 31.6229C258.286 30.3416 258.905 26.267 257.063 22.522C255.221 18.777 251.616 16.7797 249.011 18.061C246.405 19.3422 245.787 23.4168 247.628 27.1618C249.47 30.9069 253.075 32.9042 255.68 31.6229Z" fill="#E6E6E6"/>
<path d="M266.236 79.8866C268.841 78.6053 269.46 74.5307 267.618 70.7857C265.777 67.0406 262.172 65.0434 259.566 66.3246C256.961 67.6059 256.342 71.6805 258.184 75.4255C260.026 79.1705 263.631 81.1678 266.236 79.8866Z" fill="#3F3D56"/>
<path d="M213.661 31.0526C216.266 29.7713 216.885 25.6967 215.043 21.9517C213.201 18.2067 209.596 16.2094 206.991 17.4906C204.386 18.7719 203.767 22.8465 205.609 26.5915C207.45 30.3366 211.056 32.3338 213.661 31.0526Z" fill="#FF6584"/>
<path d="M191.574 15.7357C194.078 14.9056 195.639 12.8208 195.062 11.0792C194.484 9.33759 191.987 8.5986 189.483 9.42867C186.98 10.2587 185.418 12.3435 185.996 14.0851C186.573 15.8268 189.071 16.5657 191.574 15.7357Z" fill="#E6E6E6"/>
<path d="M160.446 18.181C162.95 17.3509 164.511 15.2661 163.934 13.5245C163.356 11.7829 160.859 11.0439 158.355 11.874C155.852 12.7041 154.29 14.7888 154.868 16.5304C155.445 18.2721 157.943 19.011 160.446 18.181Z" fill="#3F3D56"/>
<path d="M228.635 55.3587C231.139 54.5286 232.7 52.4439 232.123 50.7022C231.545 48.9606 229.048 48.2216 226.544 49.0517C224.041 49.8818 222.479 51.9666 223.057 53.7082C223.634 55.4498 226.132 56.1888 228.635 55.3587Z" fill="#E6E6E6"/>
<path d="M232.617 29.0989C235.121 28.2689 236.682 26.1841 236.105 24.4425C235.527 22.7008 233.03 21.9619 230.526 22.792C228.022 23.622 226.461 25.7068 227.038 27.4484C227.616 29.19 230.114 29.929 232.617 29.0989Z" fill="#FF6584"/>
<path d="M263.654 53.8314C266.158 53.0013 267.719 50.9165 267.142 49.1749C266.564 47.4333 264.067 46.6943 261.563 47.5244C259.059 48.3544 257.498 50.4392 258.075 52.1808C258.653 53.9225 261.151 54.6614 263.654 53.8314Z" fill="#3F3D56"/>
<path d="M273.264 204.089L306.28 202.389L321.615 226.62C321.615 226.62 350.469 231.444 348.469 265.444C346.469 299.444 313.363 329.279 313.363 329.279L314.778 346.985L312.32 354.007L312.635 357.951L315.988 362.127L316.333 366.446L313.363 373.279L317.403 379.822L232.469 371.593L229.363 360.279L233.894 354.203L231.363 346.279L235.167 338.657L237.151 314.446C237.151 314.446 215.447 281.838 240.363 257.279L250.363 240.279L261.552 226.628L273.264 204.089Z" fill="#CBD5E1"/>
<path d="M289.678 197.248C308.999 197.248 324.662 181.585 324.662 162.264C324.662 142.942 308.999 127.279 289.678 127.279C270.357 127.279 254.694 142.942 254.694 162.264C254.694 181.585 270.357 197.248 289.678 197.248Z" fill="#9F616A"/>
<path d="M284.994 160.142C281.979 160.142 278.966 160.057 275.955 159.887L275.417 159.857L275.487 159.323C275.931 155.984 275.681 152.589 274.754 149.35C273.179 153.038 270.836 156.347 267.881 159.057L267.714 159.21L267.489 159.186C259.311 158.291 251.207 156.813 243.239 154.763L242.934 154.685L242.873 154.376C242.278 151.454 241.97 148.48 241.953 145.498C241.953 136.182 245.33 128.341 251.464 123.42C258.139 118.063 267.708 116.416 278.418 118.778H312.663C316.428 118.783 320.037 120.28 322.699 122.942C325.361 125.604 326.859 129.214 326.863 132.979V154.665L326.489 154.762C312.944 158.322 298.999 160.13 284.994 160.142Z" fill="#0F172A"/>
<path d="M46.2805 121.229C44.7475 121.79 43.4995 122.935 42.8102 124.415C42.121 125.895 42.0469 127.587 42.6042 129.122L79.5474 230.491C80.108 232.024 81.2539 233.272 82.7336 233.961C84.2132 234.65 85.9059 234.724 87.4402 234.167L230.823 181.912C232.356 181.351 233.604 180.205 234.293 178.726C234.983 177.246 235.057 175.553 234.5 174.019L197.556 72.6503C196.996 71.1173 195.85 69.8692 194.37 69.18C192.89 68.4907 191.198 68.4165 189.664 68.9737L46.2805 121.229Z" fill="#CBD5E1"/>
<path d="M177.459 195.772L89.6938 227.757C88.0425 228.357 86.2207 228.277 84.6282 227.535C83.0356 226.794 81.8024 225.45 81.199 223.8L47.6918 131.86C47.092 130.208 47.1717 128.387 47.9135 126.794C48.6553 125.202 49.9985 123.968 51.6485 123.365L186.929 74.0626C188.581 73.4628 190.402 73.5426 191.995 74.2844C193.588 75.0263 194.821 76.3696 195.424 78.0196L211.615 122.444C216.791 136.698 216.102 152.424 209.699 166.171C203.296 179.917 191.701 190.563 177.459 195.772V195.772Z" fill="white"/>
<path d="M114.307 129.352L93.4512 136.953C93.1897 137.048 92.9119 137.091 92.6338 137.079C92.3557 137.067 92.0827 137 91.8303 136.882C91.578 136.765 91.3513 136.599 91.1631 136.394C90.975 136.189 90.829 135.948 90.7337 135.687C90.6384 135.425 90.5955 135.147 90.6076 134.869C90.6196 134.591 90.6863 134.318 90.8038 134.066C90.9214 133.813 91.0875 133.587 91.2926 133.399C91.4978 133.21 91.738 133.065 91.9995 132.969L112.856 125.368C113.384 125.176 113.967 125.201 114.476 125.438C114.986 125.676 115.381 126.106 115.573 126.634C115.766 127.162 115.74 127.745 115.503 128.255C115.266 128.765 114.835 129.159 114.307 129.352H114.307Z" fill="#CBD5E1"/>
<path d="M164.028 120.459L96.42 145.099C96.1583 145.194 95.8804 145.237 95.6021 145.226C95.3237 145.214 95.0504 145.147 94.7978 145.03C94.5452 144.912 94.3182 144.746 94.1298 144.541C93.9415 144.336 93.7954 144.095 93.7 143.834C93.6046 143.572 93.5618 143.294 93.5739 143.016C93.586 142.737 93.6529 142.464 93.7707 142.212C93.8885 141.959 94.0549 141.732 94.2604 141.544C94.4659 141.356 94.7064 141.21 94.9683 141.115L162.577 116.476C162.838 116.38 163.116 116.338 163.394 116.35C163.672 116.362 163.945 116.428 164.197 116.546C164.45 116.663 164.677 116.83 164.865 117.035C165.053 117.24 165.199 117.48 165.294 117.742C165.389 118.003 165.432 118.281 165.42 118.559C165.408 118.837 165.342 119.11 165.224 119.363C165.106 119.615 164.94 119.842 164.735 120.03C164.53 120.218 164.29 120.364 164.028 120.459V120.459Z" fill="#CBD5E1"/>
<path d="M167.436 129.81L99.8277 154.449C99.5662 154.545 99.2884 154.587 99.0103 154.575C98.7322 154.563 98.4591 154.497 98.2068 154.379C97.9544 154.262 97.7277 154.096 97.5396 153.89C97.3514 153.685 97.2055 153.445 97.1102 153.183C97.0149 152.922 96.972 152.644 96.984 152.366C96.9961 152.088 97.0628 151.815 97.1803 151.563C97.2978 151.31 97.4639 151.083 97.6691 150.895C97.8743 150.707 98.1145 150.561 98.376 150.466L165.984 125.826C166.512 125.635 167.095 125.66 167.604 125.898C168.113 126.136 168.507 126.565 168.699 127.093C168.892 127.621 168.867 128.204 168.63 128.713C168.393 129.222 167.964 129.617 167.436 129.81V129.81Z" fill="#CBD5E1"/>
<path d="M170.844 139.16L103.235 163.8C102.974 163.895 102.696 163.939 102.418 163.927C102.139 163.915 101.866 163.849 101.613 163.731C101.361 163.614 101.134 163.448 100.945 163.242C100.757 163.037 100.611 162.797 100.515 162.535C100.42 162.273 100.377 161.995 100.389 161.717C100.401 161.438 100.468 161.165 100.586 160.913C100.704 160.66 100.87 160.433 101.076 160.245C101.281 160.057 101.522 159.912 101.784 159.816L169.392 135.177C169.654 135.082 169.931 135.039 170.209 135.051C170.488 135.063 170.761 135.13 171.013 135.247C171.265 135.365 171.492 135.531 171.68 135.736C171.868 135.941 172.014 136.181 172.11 136.443C172.205 136.704 172.248 136.982 172.236 137.26C172.224 137.538 172.157 137.811 172.039 138.064C171.922 138.316 171.756 138.543 171.551 138.731C171.345 138.919 171.105 139.065 170.844 139.16V139.16Z" fill="#CBD5E1"/>
<path d="M174.251 148.512L106.643 173.151C106.115 173.344 105.532 173.319 105.022 173.081C104.513 172.844 104.118 172.414 103.926 171.885C103.733 171.357 103.758 170.774 103.996 170.265C104.233 169.755 104.663 169.361 105.191 169.168L172.8 144.529C173.061 144.433 173.339 144.39 173.617 144.402C173.895 144.414 174.168 144.481 174.421 144.599C174.673 144.716 174.9 144.882 175.088 145.087C175.276 145.293 175.422 145.533 175.517 145.794C175.613 146.056 175.655 146.334 175.643 146.612C175.631 146.89 175.565 147.163 175.447 147.415C175.33 147.668 175.164 147.894 174.958 148.082C174.753 148.271 174.513 148.417 174.251 148.512H174.251Z" fill="#CBD5E1"/>
<path d="M388.773 174.479L351.757 263.059C350.177 266.807 347.188 269.784 343.433 271.347C339.678 272.91 335.459 272.935 331.686 271.415C329.734 270.628 327.963 269.453 326.481 267.96C324.998 266.467 323.835 264.687 323.063 262.73C322.29 260.773 321.925 258.679 321.988 256.575C322.051 254.472 322.542 252.404 323.431 250.497L364.702 159.663L387.454 103.411C385.488 101.45 384.173 98.9318 383.688 96.1978C383.203 93.4638 383.572 90.6468 384.744 88.1295C385.916 85.6123 387.834 83.5168 390.239 82.1279C392.643 80.7389 395.417 80.1238 398.183 80.366C400.949 80.6083 403.573 81.6962 405.7 83.482C407.826 85.2677 409.351 87.6647 410.067 90.3474C410.784 93.03 410.657 95.8682 409.704 98.4764C408.752 101.084 407.019 103.336 404.742 104.925L388.773 174.479Z" fill="#9F616A"/>
</g>
<defs>
<clipPath id="clip0_957_1447">
<rect width="471.644" height="535.279" fill="white"/>
</clipPath>
</defs>
</svg>
