<svg width="639" height="428" viewBox="0 0 639 428" fill="none" xmlns="http://www.w3.org/2000/svg">
<g clip-path="url(#clip0_957_1358)">
<path d="M639 227.476C639 314.048 584.091 387.81 507.182 415.878C495.482 420.156 483.405 423.324 471.111 425.339C437.289 430.882 402.611 427.735 370.342 416.194C292.946 388.357 237.636 314.346 237.672 227.433C237.672 116.732 327.515 26.9514 438.336 26.9514C480.219 26.8905 521.062 39.9844 555.092 64.3826C605.897 100.757 639 160.252 639 227.476Z" fill="#E5E5E5"/>
<path d="M507.182 415.877C495.482 420.155 483.405 423.323 471.111 425.338C437.289 430.881 402.611 427.734 370.342 416.193L379.608 379.035L380.168 376.805L399.079 376.878L494.084 377.218L495.3 380.809L507.182 415.877Z" fill="#2F2E41"/>
<path d="M174.305 0H0V197.094H174.305V0Z" fill="#E6E6E6"/>
<path d="M170.892 4.16992H3.10791V192.925H170.892V4.16992Z" fill="white"/>
<path d="M87.1526 186.213C92.3469 186.213 96.5577 182.005 96.5577 176.815C96.5577 171.624 92.3469 167.416 87.1526 167.416C81.9583 167.416 77.7476 171.624 77.7476 176.815C77.7476 182.005 81.9583 186.213 87.1526 186.213Z" fill="#E6E6E6"/>
<path d="M85.5638 70.9844H31.5444V76.5067H85.5638V70.9844Z" fill="#E6E6E6"/>
<path d="M113.074 87.5332H31.5444V93.0555H113.074V87.5332Z" fill="#CBD5E1"/>
<path d="M105.071 104.186H31.5444V109.708H105.071V104.186Z" fill="#E6E6E6"/>
<path d="M145.086 120.396H31.5444V125.919H145.086V120.396Z" fill="#CBD5E1"/>
<path d="M125.258 135.838H32.7246V141.36H125.258V135.838Z" fill="#E6E6E6"/>
<path d="M247.856 320.713C248.519 321.393 249.127 322.125 249.675 322.9L334.871 320.817L344.81 302.668L374.18 314.077L359.708 347.915C358.539 350.649 356.514 352.93 353.937 354.416C351.361 355.902 348.371 356.512 345.418 356.156L249.16 344.536C246.89 347.408 243.798 349.522 240.296 350.595C236.794 351.669 233.048 351.652 229.556 350.546C226.064 349.44 222.991 347.298 220.747 344.405C218.504 341.512 217.194 338.004 216.994 334.349C216.793 330.694 217.711 327.065 219.625 323.944C221.539 320.822 224.358 318.358 227.708 316.877C231.058 315.396 234.78 314.97 238.378 315.654C241.977 316.339 245.281 318.102 247.853 320.709L247.856 320.713Z" fill="#9F616A"/>
<path d="M362.526 217.079L402.397 204.021L414.107 187.973L471.093 191.343L479.46 210.07L509.846 224.419L505.176 311.084L497.187 392.192C456.107 370.934 379.441 387.141 378.77 387.404L362.526 217.079Z" fill="#CBD5E1"/>
<path d="M371.049 334.385L330.495 318.17L330.667 317.449C330.841 316.72 348.102 244.642 350.394 233.059C352.781 220.992 361.504 217.655 361.874 217.52L362.145 217.42L378.194 222.302L385.243 277.647L371.049 334.385Z" fill="#CBD5E1"/>
<path d="M458.615 388.626C459.565 388.603 460.516 388.656 461.459 388.783L517.856 324.936L511.296 305.317L539.637 291.553L554.629 325.164C555.84 327.879 556.137 330.914 555.476 333.812C554.814 336.71 553.229 339.316 550.96 341.238L476.988 403.87C477.551 407.487 477 411.19 475.406 414.485C473.813 417.781 471.253 420.514 468.067 422.321C464.881 424.128 461.221 424.922 457.572 424.599C453.923 424.276 450.459 422.85 447.641 420.512C444.823 418.174 442.784 415.034 441.795 411.509C440.807 407.985 440.915 404.243 442.106 400.781C443.298 397.32 445.515 394.303 448.464 392.131C451.413 389.96 454.954 388.737 458.615 388.626V388.626Z" fill="#9F616A"/>
<path d="M513.354 331.15L489.828 275.85L499.004 237.331L508.891 224.849C509.615 224.539 510.395 224.384 511.183 224.391C511.97 224.398 512.748 224.569 513.466 224.891C517.114 226.358 520.216 230.852 522.695 238.25L544.743 301.008L513.354 331.15Z" fill="#CBD5E1"/>
<path d="M391.296 167.48V125.789C391.272 118.453 392.694 111.184 395.481 104.396C398.268 97.6092 402.366 91.437 407.54 86.2322C412.714 81.0274 418.863 76.8919 425.636 74.0619C432.41 71.232 439.674 69.7629 447.016 69.7386C454.357 69.7143 461.632 71.1352 468.424 73.9203C475.216 76.7054 481.392 80.8 486.601 85.9704C491.809 91.1409 495.947 97.2858 498.779 104.054C501.611 110.823 503.081 118.083 503.106 125.419C503.106 125.543 503.106 125.666 503.106 125.789V167.48C503.103 169.47 502.312 171.377 500.904 172.784C499.496 174.191 497.587 174.983 495.596 174.985H398.806C396.815 174.983 394.906 174.191 393.498 172.784C392.091 171.377 391.299 169.47 391.296 167.48V167.48Z" fill="#2F2E41"/>
<path d="M435.713 174.013C458.349 174.013 476.7 155.675 476.7 133.054C476.7 110.434 458.349 92.0957 435.713 92.0957C413.076 92.0957 394.726 110.434 394.726 133.054C394.726 155.675 413.076 174.013 435.713 174.013Z" fill="#9F616A"/>
<path d="M378.071 129.124C378.084 117.408 382.747 106.175 391.038 97.8899C399.329 89.605 410.569 84.9448 422.294 84.9316H430.639C442.363 84.9448 453.604 89.6051 461.894 97.8899C470.185 106.175 474.848 117.408 474.861 129.124V129.958H457.227L451.213 113.126L450.01 129.958H440.897L437.863 121.467L437.255 129.958H378.071V129.124Z" fill="#2F2E41"/>
<path d="M431.68 179.673C430.852 178.553 430.357 177.222 430.253 175.833C430.149 174.444 430.44 173.054 431.092 171.824C439.934 155.017 452.313 123.962 435.881 104.81L434.703 103.436H482.41V175.011L439.072 182.652C438.633 182.729 438.189 182.769 437.743 182.769C436.56 182.769 435.394 182.489 434.34 181.951C433.287 181.413 432.376 180.633 431.683 179.675L431.68 179.673Z" fill="#2F2E41"/>
<path d="M87.0011 15.3496C83.0454 15.3494 79.1786 16.5214 75.8895 18.7173C72.6004 20.9133 70.0368 24.0345 68.5228 27.6864C67.0089 31.3384 66.6126 35.3569 67.3841 39.2339C68.1556 43.1108 70.0602 46.6721 72.8572 49.4674C75.6541 52.2626 79.2176 54.1663 83.0972 54.9377C86.9768 55.7091 90.9982 55.3135 94.6528 53.801C98.3074 52.2885 101.431 49.7269 103.629 46.4404C105.827 43.1538 107 39.2897 107 35.3368V35.3358C107 32.7111 106.483 30.1122 105.478 27.6874C104.473 25.2626 102.999 23.0593 101.142 21.2034C99.2851 19.3475 97.0803 17.8754 94.6538 16.871C92.2272 15.8666 89.6265 15.3496 87.0001 15.3496H87.0011ZM87.0011 21.3449C88.1877 21.3449 89.3476 21.6965 90.3342 22.3553C91.3208 23.0141 92.0898 23.9504 92.5439 25.0459C92.998 26.1414 93.1168 27.3469 92.8853 28.5098C92.6538 29.6728 92.0824 30.7411 91.2434 31.5795C90.4044 32.418 89.3354 32.989 88.1716 33.2203C87.0078 33.4517 85.8015 33.333 84.7052 32.8792C83.609 32.4254 82.672 31.657 82.0127 30.6711C81.3535 29.6851 81.0016 28.526 81.0016 27.3403C81.0016 25.7502 81.6337 24.2253 82.7588 23.1009C83.8839 21.9766 85.4099 21.3449 87.0011 21.3449V21.3449ZM87.0011 50.2091C84.6308 50.1982 82.299 49.6097 80.2079 48.4945C78.1168 47.3793 76.3295 45.7711 75.0011 43.8094C75.0974 39.8122 83.0011 37.6119 87.0011 37.6119C91.0011 37.6119 98.9048 39.8122 99.0011 43.8094C97.6712 45.7697 95.8836 47.3767 93.7928 48.4918C91.702 49.6068 89.371 50.1962 87.0011 50.2091Z" fill="#CBD5E1"/>
<path d="M87.2334 180.419C95.4728 165.33 115.211 155.775 131.357 164.388C138.625 168.264 144.402 175.121 146.236 183.225C148.364 192.639 143.88 201.616 139.25 209.525C136.738 213.818 133.984 218.024 131.905 222.552C129.752 227.241 128.213 232.661 129.834 237.762C131.293 242.358 134.952 245.7 138.96 248.157C143.382 250.766 148.087 252.865 152.982 254.416C163.06 257.765 173.69 259.139 184.289 258.463C189.557 258.106 194.78 257.262 199.892 255.943C205.33 254.557 210.667 252.801 216.114 251.446C225.208 249.189 235.578 248.066 244.201 252.601C252.579 257.007 256.329 266.224 257.488 275.19C259.63 291.746 253.061 308.926 241.2 320.52C235.51 326.083 228.349 330.678 220.55 332.558C213.745 334.199 205.007 334.094 199.592 329.01C193.549 323.337 194.97 314.239 199.77 308.253C205.896 300.615 216.275 298.781 225.536 298.595C236.072 298.384 246.598 299.951 257.127 298.977C262.266 298.577 267.309 297.361 272.066 295.376C276.248 293.538 280.062 290.958 283.325 287.762C289.825 281.451 294.209 273.044 296.389 264.302C299.014 253.79 298.442 242.742 296.404 232.183C295.318 226.738 293.92 221.36 292.216 216.076C291.512 213.845 287.988 214.799 288.697 217.045C294.973 236.929 298.472 259.922 286.347 278.385C281.33 286.214 273.513 291.837 264.491 294.106C253.998 296.713 242.987 295.424 232.319 295.037C222.175 294.668 211.036 295.066 202.341 300.97C195.208 305.812 190.218 315.023 192.375 323.718C194.454 332.104 202.518 336.357 210.583 337.012C219.046 337.702 227.373 334.863 234.481 330.425C249.265 321.193 259.095 304.957 261.152 287.742C262.224 278.773 261.133 269.111 257.063 260.97C254.918 256.563 251.579 252.845 247.426 250.238C243.285 247.701 238.502 246.453 233.699 246.011C222.785 245.006 212.299 248.751 201.946 251.615C196.658 253.148 191.237 254.183 185.754 254.704C180.434 255.144 175.083 255.057 169.779 254.444C164.517 253.823 159.331 252.673 154.3 251.011C149.369 249.488 144.649 247.355 140.248 244.662C136.366 242.181 133.008 238.628 132.817 233.785C132.61 228.535 135.259 223.623 137.779 219.196C142.757 210.452 148.907 201.898 150.205 191.661C151.342 182.706 147.736 173.88 141.509 167.493C138.389 164.251 134.632 161.688 130.474 159.965C126.316 158.241 121.847 157.394 117.346 157.476C108.108 157.741 99.2623 161.755 92.4671 167.921C89.0969 170.981 86.2608 174.581 84.0757 178.573C82.9501 180.634 86.0994 182.476 87.2261 180.413L87.2334 180.419Z" fill="#3F3D56"/>
</g>
<defs>
<clipPath id="clip0_957_1358">
<rect width="639" height="428" fill="white"/>
</clipPath>
</defs>
</svg>
