<svg width="581" height="559" viewBox="0 0 581 559" fill="none" xmlns="http://www.w3.org/2000/svg">
<g clip-path="url(#clip0_957_1495)">
<path d="M257.274 288.162L279.169 326.081L301.064 363.999H213.485L235.38 326.081L257.274 288.162Z" fill="#CBD5E1"/>
<path d="M132.858 213.688H41.0356V305.5H132.858V213.688Z" fill="#E6E6E6"/>
<path d="M198.678 155.187C231.214 155.187 257.59 128.814 257.59 96.2812C257.59 63.7482 231.214 37.375 198.678 37.375C166.141 37.375 139.765 63.7482 139.765 96.2812C139.765 128.814 166.141 155.187 198.678 155.187Z" fill="#CBD5E1"/>
<path d="M251.699 194.639C251.699 192.71 252.271 190.825 253.342 189.222C254.414 187.618 255.936 186.369 257.718 185.631C259.5 184.893 261.461 184.7 263.352 185.076C265.244 185.452 266.981 186.381 268.345 187.744C269.709 189.108 270.637 190.845 271.013 192.737C271.39 194.628 271.197 196.588 270.459 198.37C269.721 200.151 268.471 201.674 266.867 202.746C265.264 203.817 263.378 204.389 261.45 204.389C258.864 204.389 256.383 203.361 254.555 201.533C252.726 199.704 251.699 197.225 251.699 194.639ZM253.324 194.639C253.324 196.246 253.8 197.817 254.693 199.153C255.586 200.489 256.855 201.53 258.34 202.145C259.825 202.76 261.459 202.921 263.035 202.608C264.611 202.294 266.059 201.52 267.196 200.384C268.332 199.248 269.106 197.8 269.42 196.224C269.733 194.648 269.572 193.014 268.957 191.529C268.342 190.045 267.301 188.776 265.964 187.883C264.628 186.99 263.057 186.514 261.45 186.514C259.295 186.514 257.228 187.37 255.704 188.893C254.18 190.417 253.324 192.484 253.324 194.639V194.639Z" fill="#CCCCCC"/>
<path d="M167.747 364.237L153.394 348.85L168.782 334.498L183.136 349.885L167.747 364.237ZM155.682 348.93L167.827 361.949L180.848 349.806L168.703 336.786L155.682 348.93Z" fill="#CCCCCC"/>
<path d="M49.2023 145.346L37.5205 132.823L50.0482 121.145L61.7299 133.668L49.2023 145.346ZM39.3822 132.888L49.2705 143.488L59.8683 133.604L49.9832 123.008L39.3822 132.888Z" fill="#CCCCCC"/>
<path d="M213.304 162.5C197.233 162.5 181.522 157.735 168.159 148.807C154.796 139.879 144.381 127.19 138.231 112.343C132.081 97.4966 130.471 81.1599 133.607 65.3989C136.742 49.638 144.481 35.1606 155.846 23.7976C167.21 12.4346 181.689 4.69628 197.451 1.56123C213.214 -1.57382 229.552 0.0352042 244.401 6.18482C259.249 12.3344 271.94 22.7485 280.868 36.11C289.797 49.4714 294.563 65.1803 294.563 81.25C294.563 102.799 286.002 123.465 270.763 138.702C255.524 153.94 234.855 162.5 213.304 162.5V162.5ZM213.304 1.62504C197.554 1.62504 182.158 6.29496 169.062 15.0443C155.966 23.7936 145.76 36.2293 139.732 50.7789C133.705 65.3284 132.128 81.3384 135.201 96.7841C138.273 112.23 145.858 126.418 156.995 137.553C168.132 148.689 182.321 156.273 197.768 159.345C213.216 162.417 229.227 160.841 243.779 154.814C258.33 148.787 270.767 138.582 279.517 125.487C288.267 112.393 292.938 96.9984 292.938 81.25C292.938 60.1322 284.548 39.8792 269.614 24.9467C254.679 10.0141 234.424 1.62504 213.304 1.62504V1.62504Z" fill="#3F3D56"/>
<path d="M163.282 144.466L142.291 188.148L143.755 188.852L164.747 145.17L163.282 144.466Z" fill="#3F3D56"/>
<path d="M158.436 246.284L157.662 247.713L250.125 297.748L250.898 296.319L158.436 246.284Z" fill="#3F3D56"/>
<path d="M158.861 306.313H40.2231V187.688H158.861V306.313ZM41.8483 304.688H157.236V189.313H41.8483V304.688Z" fill="#3F3D56"/>
<path d="M334.794 364.812H212.078L273.436 258.549L334.794 364.812ZM214.893 363.187H331.979L273.436 261.799L214.893 363.187Z" fill="#3F3D56"/>
<path d="M581 557.375H0V559H581V557.375Z" fill="#E6E6E6"/>
<path d="M167.638 506.7C171.773 508.153 176.212 508.517 180.529 507.757C184.845 506.997 188.893 505.138 192.282 502.359C200.913 495.115 203.62 483.184 205.821 472.134L212.334 439.449L198.699 448.837C188.893 455.588 178.866 462.556 172.077 472.334C165.288 482.113 162.326 495.462 167.779 506.043" fill="#E6E6E6"/>
<path d="M169.744 548.546C168.028 536.044 166.262 523.381 167.468 510.745C168.538 499.522 171.962 488.563 178.933 479.574C182.634 474.812 187.136 470.733 192.239 467.518C193.569 466.679 194.793 468.786 193.469 469.622C184.64 475.201 177.811 483.439 173.967 493.149C169.721 503.947 169.039 515.717 169.771 527.187C170.213 534.124 171.152 541.014 172.095 547.897C172.17 548.208 172.123 548.536 171.965 548.815C171.807 549.093 171.549 549.301 171.244 549.396C170.932 549.48 170.6 549.438 170.319 549.278C170.038 549.119 169.832 548.855 169.745 548.545L169.744 548.546Z" fill="#F2F2F2"/>
<path d="M283.344 531.327C285.352 533.698 287.936 535.512 290.848 536.594C293.761 537.677 296.902 537.991 299.971 537.507C307.848 536.171 313.785 529.843 319.091 523.875L334.794 506.221L323.093 507.074C314.675 507.687 306.045 508.354 298.39 511.9C290.736 515.447 284.132 522.544 283.675 530.974" fill="#E6E6E6"/>
<path d="M269.868 555.946C272.631 549.304 275.411 542.569 279.646 536.704C283.407 531.494 288.251 527.092 294.273 524.679C297.465 523.404 300.855 522.696 304.29 522.586C305.184 522.557 305.184 523.947 304.29 523.976C298.341 524.174 292.609 526.257 287.92 529.922C282.719 534.008 278.991 539.598 276.044 545.448C274.262 548.986 272.736 552.645 271.217 556.301C271.164 556.475 271.047 556.623 270.889 556.715C270.731 556.806 270.544 556.834 270.366 556.793C270.189 556.744 270.038 556.627 269.946 556.468C269.854 556.309 269.828 556.12 269.875 555.942L269.868 555.946Z" fill="#F2F2F2"/>
<path d="M182.097 528.486C183.87 531.182 186.307 533.375 189.174 534.855C192.041 536.335 195.241 537.052 198.465 536.936C206.754 536.543 213.661 530.761 219.878 525.27L238.271 509.032L226.098 508.45C217.344 508.031 208.364 507.637 200.026 510.34C191.688 513.042 183.999 519.536 182.475 528.165" fill="#E6E6E6"/>
<path d="M164.893 555.735C173.155 541.117 182.738 524.871 199.862 519.678C204.623 518.24 209.616 517.724 214.57 518.16C216.132 518.295 215.742 520.701 214.183 520.567C205.878 519.878 197.589 522.07 190.711 526.776C184.093 531.281 178.939 537.544 174.578 544.184C171.906 548.252 169.513 552.493 167.12 556.728C166.355 558.081 164.119 557.104 164.893 555.735Z" fill="#F2F2F2"/>
<path d="M19.082 529.842C22.0742 530.894 25.2868 531.157 28.4104 530.607C31.534 530.057 34.4632 528.712 36.9159 526.701C43.1623 521.459 45.123 512.823 46.7141 504.825L51.4271 481.172L41.5598 487.966C34.4635 492.852 27.2079 497.894 22.2942 504.971C17.3805 512.048 15.2361 521.708 19.1836 529.365" fill="#E6E6E6"/>
<path d="M19.9255 558.481C18.9268 551.206 17.8997 543.839 18.6001 536.487C19.2226 529.958 21.2142 523.581 25.2707 518.351C27.4236 515.581 30.0434 513.207 33.0122 511.337C33.7866 510.85 34.4984 512.076 33.7281 512.561C28.5915 515.807 24.6185 520.6 22.3819 526.25C19.9117 532.532 19.5151 539.38 19.9442 546.054C20.2017 550.089 20.747 554.097 21.2971 558.103C21.3414 558.284 21.3148 558.475 21.2226 558.638C21.1305 558.8 20.9798 558.921 20.8014 558.976C20.62 559.024 20.4266 559 20.2632 558.907C20.0998 558.814 19.9796 558.661 19.9287 558.48L19.9255 558.481Z" fill="#F2F2F2"/>
<path d="M93.4282 558.554C93.2137 558.203 88.1586 549.764 86.4067 532.238C84.7994 516.16 85.833 489.059 99.8891 451.255C126.519 379.638 93.7524 321.853 93.4177 321.277L95.0339 320.34C95.1152 320.486 103.574 335.218 108.568 358.679C115.168 389.781 112.765 422.12 101.64 451.906C75.0556 523.401 94.8202 557.246 95.0225 557.58L93.4282 558.554Z" fill="#3F3D56"/>
<path d="M121.317 361.909C128.024 361.909 133.461 356.472 133.461 349.766C133.461 343.06 128.024 337.623 121.317 337.623C114.61 337.623 109.173 343.06 109.173 349.766C109.173 356.472 114.61 361.909 121.317 361.909Z" fill="#CBD5E1"/>
<path d="M85.8175 456.251C92.5245 456.251 97.9616 450.814 97.9616 444.108C97.9616 437.401 92.5245 431.965 85.8175 431.965C79.1104 431.965 73.6733 437.401 73.6733 444.108C73.6733 450.814 79.1104 456.251 85.8175 456.251Z" fill="#CBD5E1"/>
<path d="M99.6337 558.189C99.6337 558.189 89.2708 532.683 120.359 513.555L99.6337 558.189Z" fill="#E6E6E6"/>
<path d="M86.8892 557.725C86.8892 557.725 83.7282 539.546 59.2612 539.702L86.8892 557.725Z" fill="#E6E6E6"/>
<path d="M115.184 409.795C115.184 407.867 115.756 405.982 116.827 404.378C117.899 402.775 119.422 401.525 121.204 400.787C122.985 400.049 124.946 399.856 126.837 400.232C128.729 400.608 130.466 401.537 131.83 402.901C133.194 404.264 134.123 406.002 134.499 407.893C134.875 409.784 134.682 411.745 133.944 413.526C133.206 415.308 131.956 416.83 130.353 417.902C128.749 418.973 126.864 419.545 124.935 419.545C122.349 419.545 119.869 418.518 118.04 416.689C116.211 414.861 115.184 412.381 115.184 409.795V409.795ZM116.809 409.795C116.809 411.402 117.286 412.973 118.179 414.309C119.072 415.645 120.341 416.687 121.825 417.302C123.31 417.916 124.944 418.077 126.52 417.764C128.097 417.45 129.545 416.677 130.681 415.54C131.817 414.404 132.591 412.956 132.905 411.38C133.218 409.804 133.057 408.17 132.442 406.686C131.827 405.201 130.786 403.932 129.45 403.039C128.113 402.146 126.542 401.67 124.935 401.67C122.78 401.67 120.713 402.526 119.189 404.05C117.665 405.573 116.809 407.64 116.809 409.795Z" fill="#CCCCCC"/>
<path d="M85.8174 379.701C85.8174 377.773 86.3893 375.888 87.4607 374.284C88.5322 372.681 90.0551 371.431 91.8369 370.693C93.6186 369.955 95.5793 369.762 97.4708 370.139C99.3623 370.515 101.1 371.443 102.463 372.807C103.827 374.17 104.756 375.908 105.132 377.799C105.508 379.69 105.315 381.651 104.577 383.432C103.839 385.214 102.589 386.737 100.986 387.808C99.3823 388.879 97.497 389.451 95.5684 389.451C92.9823 389.451 90.5021 388.424 88.6734 386.595C86.8447 384.767 85.8174 382.287 85.8174 379.701V379.701ZM87.4426 379.701C87.4426 381.308 87.9191 382.879 88.812 384.215C89.7049 385.551 90.974 386.593 92.4588 387.208C93.9436 387.823 95.5774 387.984 97.1537 387.67C98.73 387.357 100.178 386.583 101.314 385.446C102.451 384.31 103.225 382.862 103.538 381.286C103.852 379.71 103.691 378.077 103.076 376.592C102.461 375.107 101.419 373.838 100.083 372.945C98.7466 372.053 97.1756 371.576 95.5684 371.576C93.4133 371.576 91.3465 372.432 89.8226 373.956C88.2987 375.48 87.4426 377.546 87.4426 379.701Z" fill="#CCCCCC"/>
<path d="M518.361 356.376C517.148 357.246 515.758 357.838 514.289 358.108C512.821 358.378 511.31 358.32 509.867 357.937V357.937C507.277 357.248 505.066 355.559 503.721 353.24C502.376 350.922 502.008 348.164 502.697 345.574C502.732 345.442 502.769 345.311 502.81 345.181C502.96 344.707 503.145 344.245 503.366 343.8L483.496 254.602C483.192 253.584 483.091 252.516 483.2 251.459C483.309 250.402 483.625 249.377 484.13 248.442C484.634 247.507 485.319 246.681 486.143 246.01C486.967 245.339 487.915 244.838 488.934 244.534C489.952 244.23 491.02 244.129 492.077 244.238C493.134 244.346 494.159 244.662 495.094 245.167C496.029 245.672 496.856 246.356 497.526 247.18C498.197 248.004 498.699 248.953 499.003 249.971C499.019 250.026 499.035 250.082 499.051 250.138L517.807 339.604C519.216 340.48 520.387 341.69 521.217 343.127C522.047 344.564 522.51 346.184 522.565 347.842C522.62 349.5 522.265 351.147 521.532 352.635C520.799 354.124 519.71 355.409 518.362 356.376L518.361 356.376Z" fill="#9F616A"/>
<path d="M544.747 547.741H533.971L528.843 506.178H544.749L544.747 547.741Z" fill="#A0616A"/>
<path d="M547.496 558.187H512.747V557.748C512.747 554.161 514.172 550.722 516.708 548.186C519.244 545.65 522.684 544.225 526.271 544.225H547.496V558.187Z" fill="#0F172A"/>
<path d="M436.705 547.401L426.452 544.084L434.366 502.961L449.5 507.856L436.705 547.401Z" fill="#A0616A"/>
<path d="M436.105 558.187L403.046 547.493L403.181 547.074C404.285 543.662 406.7 540.828 409.893 539.195C413.087 537.563 416.799 537.265 420.212 538.369L440.405 544.901L436.105 558.187Z" fill="#0F172A"/>
<path d="M485.052 230.531C495.094 230.531 503.234 222.392 503.234 212.352C503.234 202.311 495.094 194.172 485.052 194.172C475.011 194.172 466.871 202.311 466.871 212.352C466.871 222.392 475.011 230.531 485.052 230.531Z" fill="#9F616A"/>
<path d="M509.493 283.023C512.021 273.633 500.443 244.186 499.498 240.448C494.984 239.407 484.526 241.404 478.096 240.08C468.954 247.718 461.681 258.628 456.657 263.805C451.431 269.188 448.062 272.837 453.462 285.435C460.007 300.706 458.553 316.704 458.553 316.704L462.916 355.244C462.916 355.244 444.735 406.146 446.189 440.324L429.461 523.947C429.461 523.947 434.552 532.673 444.734 528.31C444.734 528.31 468.734 485.41 466.552 454.138L492.734 395.963C492.734 395.963 510.915 451.228 516.006 456.319L529.097 534.854C529.097 534.854 541.46 538.49 547.278 534.854C547.278 534.854 549.46 459.228 537.097 446.865C537.097 446.865 524.733 394.509 527.642 380.692C530.551 366.876 531.279 345.788 509.461 326.881C509.461 326.881 509.68 326.981 502.915 314.519L509.493 283.023Z" fill="#0F172A"/>
<path d="M494.537 184.252C493.517 184.254 492.5 184.356 491.5 184.555C489.693 183.678 487.711 183.221 485.702 183.219H485.176C475.03 183.219 466.806 192.4 466.806 203.722H470.206L470.755 199.544L471.559 203.722H474.391C473.51 207.075 473.068 210.528 473.076 213.995V234.865H478.215L481.191 227.132L480.447 234.865H513.485L516.19 227.835L515.514 234.865H519.234V218.477C519.233 199.575 508.176 184.252 494.537 184.252Z" fill="#0F172A"/>
<path d="M456.628 366.704C455.151 366.925 453.644 366.817 452.214 366.387C450.784 365.957 449.467 365.216 448.357 364.217C447.372 363.328 446.571 362.254 446 361.056C445.43 359.857 445.101 358.558 445.032 357.233C444.964 355.908 445.157 354.582 445.601 353.331C446.045 352.081 446.731 350.93 447.62 349.944C447.712 349.842 447.807 349.741 447.903 349.643C448.253 349.29 448.63 348.964 449.029 348.668L472.067 260.239C472.26 259.194 472.658 258.198 473.236 257.306C473.815 256.415 474.564 255.647 475.439 255.045C476.315 254.443 477.301 254.019 478.34 253.798C479.379 253.577 480.452 253.563 481.497 253.756C482.542 253.95 483.538 254.347 484.43 254.926C485.321 255.504 486.089 256.253 486.691 257.128C487.293 258.004 487.717 258.989 487.938 260.029C488.159 261.068 488.173 262.14 487.98 263.185C487.969 263.246 487.957 263.306 487.944 263.367L463.788 351.528C464.642 352.951 465.132 354.562 465.214 356.219C465.297 357.876 464.97 359.528 464.262 361.028C463.554 362.529 462.487 363.831 461.155 364.821C459.824 365.811 458.269 366.458 456.628 366.704V366.704Z" fill="#9F616A"/>
</g>
<defs>
<clipPath id="clip0_957_1495">
<rect width="581" height="559" fill="white"/>
</clipPath>
</defs>
</svg>
