<svg width="272" height="281" viewBox="0 0 272 281" fill="none" xmlns="http://www.w3.org/2000/svg">
<g clip-path="url(#clip0_959_1837)">
<path d="M190.946 281H116.501C115.636 280.999 114.806 280.654 114.194 280.041C113.583 279.428 113.238 278.597 113.237 277.73V225.596C113.238 224.729 113.582 223.898 114.194 223.285C114.806 222.672 115.636 222.327 116.501 222.326H190.946C191.811 222.327 192.641 222.672 193.253 223.285C193.865 223.898 194.209 224.729 194.21 225.596V277.73C194.209 278.597 193.864 279.428 193.253 280.041C192.641 280.654 191.811 280.999 190.946 281Z" fill="#F1F5F9"/>
<path d="M69.2888 145.097C69.7879 144.457 70.1409 143.715 70.3229 142.924C70.5049 142.133 70.5115 141.311 70.3422 140.517C70.1729 139.723 69.8319 138.976 69.3431 138.328C68.8543 137.68 68.2297 137.148 67.5132 136.768L67.0441 86.8926L57.7378 91.1705L59.7847 139.407C59.2275 140.655 59.1467 142.064 59.5575 143.368C59.9683 144.672 60.8423 145.779 62.0138 146.48C63.1853 147.182 64.573 147.428 65.9138 147.173C67.2546 146.918 68.4555 146.179 69.2888 145.097Z" fill="#9E616A"/>
<path d="M69.0378 74.2663C69.0378 74.2663 59.9848 69.8676 58.7328 78.1666C57.4808 86.4656 52.3311 108.065 52.3311 108.065L67.9579 106.958L69.0378 74.2663Z" fill="#9E616A"/>
<path d="M69.2888 145.097C69.7879 144.457 70.1409 143.715 70.3229 142.924C70.5049 142.133 70.5115 141.311 70.3422 140.517C70.1729 139.723 69.8319 138.976 69.3431 138.328C68.8543 137.68 68.2297 137.148 67.5132 136.768L67.0441 86.8926L57.7378 91.1705L59.7847 139.407C59.2275 140.655 59.1467 142.064 59.5575 143.368C59.9683 144.672 60.8423 145.779 62.0138 146.48C63.1853 147.182 64.573 147.428 65.9138 147.173C67.2546 146.918 68.4555 146.179 69.2888 145.097Z" fill="#9E616A"/>
<path d="M69.0378 74.2663C69.0378 74.2663 59.9848 69.8676 58.7328 78.1666C57.4808 86.4656 52.3311 108.065 52.3311 108.065L67.9579 106.958L69.0378 74.2663Z" fill="#CBD5E1"/>
<path d="M42.8257 266.393C42.4601 266.41 42.0983 266.314 41.7891 266.118C41.4799 265.922 41.2384 265.635 41.0973 265.297C40.9561 264.959 40.9221 264.585 40.9999 264.227C41.0778 263.869 41.2636 263.544 41.5323 263.295C41.5773 263.116 41.6096 262.987 41.6546 262.808C41.6385 262.769 41.6223 262.73 41.606 262.691C41.2377 261.82 40.6207 261.077 39.8324 260.556C39.044 260.035 38.1195 259.759 37.175 259.762C36.2304 259.766 35.308 260.049 34.5236 260.576C33.7391 261.103 33.1276 261.85 32.7658 262.724C31.3199 266.212 29.4791 269.706 29.0258 273.394C28.8262 275.024 28.9104 276.677 29.2747 278.278C25.8788 270.858 24.1154 262.793 24.104 254.631C24.1033 252.582 24.2169 250.536 24.4443 248.5C24.6323 246.831 24.893 245.174 25.2266 243.529C27.0467 234.604 30.9547 226.238 36.6294 219.119C39.376 217.617 41.5972 215.309 42.9937 212.504C43.4996 211.496 43.8572 210.42 44.0553 209.309C43.7454 209.35 43.4305 209.376 43.1207 209.396C43.0242 209.401 42.9226 209.406 42.8261 209.411L42.7897 209.413C42.4492 209.428 42.1115 209.344 41.8173 209.172C41.5231 209 41.285 208.746 41.1316 208.441C40.9781 208.136 40.9159 207.793 40.9525 207.454C40.989 207.114 41.1228 206.793 41.3376 206.527C41.4713 206.363 41.6052 206.198 41.7391 206.033C41.9423 205.779 42.1506 205.529 42.3537 205.275C42.3772 205.251 42.3992 205.225 42.4198 205.199C42.6534 204.909 42.887 204.624 43.1207 204.334C42.6942 203.671 42.1206 203.115 41.4446 202.711C39.103 201.337 35.8726 202.288 34.1812 204.41C32.4848 206.531 32.1648 209.508 32.754 212.159C33.3334 214.414 34.2918 216.554 35.5882 218.488C35.4612 218.65 35.3291 218.808 35.2021 218.971C32.8809 221.961 30.8578 225.171 29.1618 228.556C29.5742 224.764 29.082 220.928 27.7255 217.363C26.3507 214.041 23.7739 211.243 21.5047 208.372C18.7791 204.922 13.1899 206.427 12.7097 210.8C12.705 210.843 12.7005 210.885 12.6961 210.927C13.0331 211.118 13.363 211.32 13.6859 211.534C14.0914 211.805 14.4056 212.193 14.5874 212.646C14.7691 213.1 14.8099 213.597 14.7044 214.074C14.5989 214.551 14.3521 214.985 13.9962 215.319C13.6402 215.653 13.1919 215.872 12.7099 215.946L12.6605 215.954C12.7806 217.171 12.9928 218.377 13.2954 219.561C14.1722 222.868 15.7215 225.958 17.8463 228.637C19.9711 231.316 22.6255 233.526 25.643 235.13C25.8411 235.231 26.0342 235.333 26.2323 235.43C24.5283 240.267 23.4595 245.305 23.0527 250.418C22.8223 253.435 22.8359 256.465 23.0933 259.479L23.0781 259.372C22.4279 256.02 20.6428 252.996 18.0242 250.81C14.135 247.61 8.64024 246.431 4.44447 243.859C3.99856 243.572 3.48008 243.419 2.95018 243.418C2.42027 243.416 1.90104 243.567 1.45374 243.852C1.00644 244.136 0.649723 244.543 0.425652 245.024C0.201581 245.505 0.119509 246.04 0.189113 246.566C0.194741 246.604 0.200455 246.641 0.206266 246.679C0.83173 246.934 1.44072 247.228 2.02969 247.559C2.36674 247.749 2.69667 247.951 3.01948 248.165C3.42502 248.437 3.73926 248.824 3.92102 249.278C4.10278 249.731 4.14357 250.229 4.03807 250.706C3.93258 251.183 3.68571 251.617 3.3298 251.951C2.97389 252.285 2.52556 252.503 2.04353 252.578L1.99413 252.585C1.95857 252.59 1.9281 252.596 1.8926 252.601C2.96129 255.157 4.46123 257.509 6.32674 259.556C8.63126 262.032 11.4166 264.012 14.5119 265.372C17.6073 266.733 20.9474 267.445 24.3275 267.467H24.3326C25.2502 271.461 26.5796 275.348 28.2995 279.067H42.4706C42.5214 278.909 42.5671 278.746 42.6128 278.589C41.3011 278.671 39.9842 278.593 38.6916 278.355C39.743 277.062 40.7944 275.76 41.8458 274.468C41.8693 274.443 41.8913 274.418 41.9118 274.391C42.4452 273.73 42.9836 273.074 43.5169 272.412L43.5172 272.411C43.5456 270.384 43.3133 268.361 42.8261 266.393L42.8257 266.393Z" fill="#F2F2F2"/>
<path d="M251.749 266.393C251.383 266.41 251.021 266.314 250.712 266.118C250.403 265.922 250.161 265.635 250.02 265.297C249.879 264.959 249.845 264.585 249.923 264.227C250.001 263.869 250.186 263.544 250.455 263.295C250.5 263.116 250.532 262.987 250.577 262.808C250.561 262.769 250.545 262.73 250.529 262.691C250.161 261.82 249.544 261.077 248.755 260.556C247.967 260.035 247.042 259.759 246.098 259.762C245.153 259.766 244.231 260.049 243.446 260.576C242.662 261.103 242.05 261.85 241.689 262.724C240.243 266.212 238.402 269.706 237.949 273.394C237.749 275.024 237.833 276.677 238.198 278.278C234.802 270.858 233.038 262.793 233.027 254.631C233.026 252.582 233.14 250.536 233.367 248.5C233.555 246.831 233.816 245.174 234.149 243.529C235.97 234.604 239.877 226.238 245.552 219.119C248.299 217.617 250.52 215.309 251.917 212.504C252.422 211.496 252.78 210.42 252.978 209.309C252.668 209.35 252.353 209.376 252.044 209.396C251.947 209.401 251.845 209.406 251.749 209.411L251.713 209.413C251.372 209.428 251.034 209.344 250.74 209.172C250.446 209 250.208 208.746 250.054 208.441C249.901 208.136 249.839 207.793 249.875 207.454C249.912 207.114 250.046 206.793 250.26 206.527C250.394 206.363 250.528 206.198 250.662 206.033C250.865 205.779 251.073 205.529 251.277 205.275C251.3 205.251 251.322 205.225 251.343 205.199C251.576 204.909 251.81 204.624 252.044 204.334C251.617 203.671 251.043 203.115 250.367 202.711C248.026 201.337 244.795 202.288 243.104 204.41C241.408 206.531 241.088 209.508 241.677 212.159C242.256 214.414 243.215 216.554 244.511 218.488C244.384 218.65 244.252 218.808 244.125 218.971C241.804 221.961 239.781 225.171 238.085 228.556C238.497 224.764 238.005 220.928 236.648 217.363C235.274 214.041 232.697 211.243 230.428 208.372C227.702 204.922 222.113 206.427 221.633 210.8C221.628 210.843 221.623 210.885 221.619 210.927C221.956 211.118 222.286 211.32 222.609 211.534C223.014 211.805 223.328 212.193 223.51 212.646C223.692 213.1 223.733 213.597 223.627 214.074C223.522 214.551 223.275 214.985 222.919 215.319C222.563 215.653 222.115 215.872 221.633 215.946L221.583 215.954C221.703 217.171 221.916 218.377 222.218 219.561C223.095 222.868 224.644 225.958 226.769 228.637C228.894 231.316 231.548 233.526 234.566 235.13C234.764 235.231 234.957 235.333 235.155 235.43C233.451 240.267 232.382 245.305 231.976 250.418C231.745 253.435 231.759 256.465 232.016 259.479L232.001 259.372C231.351 256.02 229.566 252.996 226.947 250.81C223.058 247.61 217.563 246.431 213.367 243.859C212.921 243.572 212.403 243.419 211.873 243.418C211.343 243.416 210.824 243.567 210.377 243.852C209.929 244.136 209.573 244.543 209.348 245.024C209.124 245.505 209.042 246.04 209.112 246.566C209.118 246.604 209.123 246.641 209.129 246.679C209.755 246.934 210.364 247.228 210.953 247.559C211.29 247.749 211.62 247.951 211.942 248.165C212.348 248.437 212.662 248.824 212.844 249.278C213.026 249.731 213.066 250.229 212.961 250.706C212.855 251.183 212.609 251.617 212.253 251.951C211.897 252.285 211.448 252.503 210.966 252.578L210.917 252.585C210.881 252.59 210.851 252.596 210.815 252.601C211.884 255.157 213.384 257.509 215.25 259.556C217.554 262.032 220.339 264.012 223.435 265.372C226.53 266.733 229.87 267.445 233.25 267.467H233.256C234.173 271.461 235.503 275.348 237.222 279.067H251.393C251.444 278.909 251.49 278.746 251.536 278.589C250.224 278.671 248.907 278.593 247.614 278.355C248.666 277.062 249.717 275.76 250.769 274.468C250.792 274.443 250.814 274.418 250.835 274.391C251.368 273.73 251.906 273.074 252.44 272.412L252.44 272.411C252.468 270.384 252.236 268.361 251.749 266.393L251.749 266.393Z" fill="#F2F2F2"/>
<path d="M197.178 278.973C197.137 278.973 197.096 278.972 197.055 278.971C196.018 278.912 195.044 278.454 194.336 277.694C193.627 276.933 193.239 275.928 193.251 274.887C193.251 268.557 188.737 264.865 184.264 264.013C179.79 263.163 174.238 264.939 171.921 270.829L169.815 276.126C167.993 277.946 165.525 278.968 162.953 278.968C160.38 278.968 157.912 277.946 156.091 276.126L155.966 276.001L156.043 275.842L193.251 199.588V197.719C193.2 197.143 193.2 196.563 193.252 195.987L193.251 3.93144C193.251 3.40499 193.357 2.88391 193.562 2.3991C193.766 1.91428 194.066 1.47562 194.444 1.10912C194.821 0.742623 195.268 0.455769 195.758 0.265565C196.248 0.0753613 196.771 -0.0143195 197.297 0.00185621C198.334 0.0612268 199.308 0.518894 200.016 1.2796C200.725 2.0403 201.114 3.04544 201.101 4.0858V196.01C201.153 196.586 201.152 197.165 201.1 197.741L201.101 199.587L238.386 276.001L238.262 276.126C236.44 277.946 233.973 278.968 231.4 278.968C228.827 278.968 226.359 277.946 224.538 276.126L224.482 276.042L222.431 270.829C220.114 264.94 214.563 263.164 210.089 264.013C205.615 264.865 201.101 268.557 201.101 274.887V275.042C201.101 276.084 200.688 277.084 199.952 277.821C199.216 278.558 198.218 278.973 197.178 278.973L197.178 278.973Z" fill="#E2E8F0"/>
<path d="M265.287 139.011H129.065C127.482 139.01 125.964 138.379 124.844 137.257C123.724 136.136 123.095 134.615 123.093 133.029V37.631C123.095 36.0449 123.724 34.5242 124.844 33.4026C125.964 32.2811 127.482 31.6502 129.065 31.6484H265.287C266.87 31.6503 268.388 32.2812 269.508 33.4027C270.628 34.5243 271.257 36.0449 271.259 37.631V133.029C271.257 134.615 270.628 136.136 269.508 137.257C268.388 138.379 266.87 139.01 265.287 139.011Z" fill="white"/>
<path d="M265.286 139.755H129.065C127.285 139.753 125.579 139.044 124.32 137.784C123.062 136.523 122.354 134.814 122.352 133.031V37.6327C122.354 35.8499 123.062 34.1406 124.32 32.88C125.579 31.6193 127.285 30.9102 129.065 30.9082H265.286C267.066 30.9102 268.773 31.6194 270.031 32.88C271.29 34.1407 271.998 35.8499 272 37.6327V133.031C271.998 134.814 271.29 136.523 270.031 137.784C268.773 139.044 267.066 139.753 265.286 139.755ZM129.065 32.3924C127.678 32.3939 126.348 32.9465 125.367 33.9289C124.387 34.9113 123.835 36.2433 123.833 37.6327V133.031C123.835 134.42 124.387 135.752 125.368 136.735C126.348 137.717 127.678 138.269 129.065 138.271H265.286C266.673 138.269 268.003 137.717 268.984 136.735C269.965 135.752 270.516 134.42 270.518 133.031V37.6327C270.517 36.2434 269.965 34.9114 268.984 33.9289C268.003 32.9465 266.673 32.3939 265.286 32.3924H129.065Z" fill="#F2F2F2"/>
<path d="M217.317 37.6131H177.035C174.481 37.6102 172.033 36.5928 170.227 34.7839C168.421 32.9751 167.405 30.5226 167.402 27.9645V27.7891H226.949V27.9645C226.946 30.5226 225.931 32.9751 224.125 34.7839C222.319 36.5928 219.87 37.6102 217.317 37.6131Z" fill="#E2E8F0"/>
<path d="M217.492 144.976H177.21C174.656 144.973 172.208 143.956 170.402 142.147C168.596 140.338 167.581 137.886 167.578 135.328V135.152H227.124V135.328C227.122 137.886 226.106 140.338 224.3 142.147C222.494 143.956 220.046 144.973 217.492 144.976Z" fill="#E2E8F0"/>
<path d="M271.486 279.464C271.486 279.541 271.471 279.618 271.442 279.689C271.413 279.761 271.369 279.826 271.315 279.881C271.26 279.935 271.195 279.979 271.124 280.008C271.052 280.038 270.976 280.053 270.898 280.052H0.587751C0.43187 280.052 0.282387 279.99 0.172162 279.88C0.0619377 279.77 0 279.62 0 279.464C0 279.308 0.0619377 279.158 0.172162 279.047C0.282387 278.937 0.43187 278.875 0.587751 278.875H270.898C270.976 278.875 271.052 278.89 271.124 278.919C271.195 278.949 271.26 278.992 271.315 279.047C271.369 279.102 271.413 279.167 271.442 279.238C271.471 279.31 271.486 279.386 271.486 279.464Z" fill="#CCCCCC"/>
<path d="M91.0303 265.76H98.1505L101.538 238.25L91.0288 238.25L91.0303 265.76Z" fill="#9E616A"/>
<path d="M88.619 262.241L99.8747 261.568V266.399L110.576 273.802C111.104 274.167 111.502 274.693 111.712 275.301C111.921 275.909 111.931 276.568 111.74 277.183C111.549 277.797 111.167 278.334 110.649 278.715C110.132 279.096 109.506 279.302 108.864 279.302H95.4637L93.154 274.524L92.2522 279.302H87.1997L88.619 262.241Z" fill="#0F172A"/>
<path d="M66.8145 112.745L66.1171 116.074L65.5239 128.356L89.352 125.124L91.1819 110.903L88.6526 106.74L66.8145 112.745Z" fill="#9E616A"/>
<path d="M54.9951 265.76H62.1153L65.5025 238.25L54.9937 238.25L54.9951 265.76Z" fill="#9E616A"/>
<path d="M51.1324 217.158L51.1321 217.084L53.7974 204.621L55.4409 198.416L50.8726 162.089C49.7969 135.696 65.0834 123.008 65.2037 122.884L65.5352 122.538L90.0507 121.938C103.241 129.854 101.748 173.152 104.163 202.598C104.336 204.698 106.5 207.797 105.968 209.794C101.747 225.639 102.984 242.774 99.768 243.28L89.909 243.143L84.8171 219.995L89.5174 202.34C87.4328 201.955 85.9922 191.747 85.9922 191.747C85.0839 190.666 81.948 181.478 81.948 181.478L77.7669 156.044L71.0492 199.79L72.667 210.053L71.3282 213.582L65.5948 242.715L65.5339 243.184L54.7245 242.103L51.1324 217.158Z" fill="#0F172A"/>
<path d="M52.5838 262.241L63.8395 261.568V266.399L74.5406 273.802C75.0692 274.167 75.4672 274.693 75.6767 275.301C75.8862 275.909 75.896 276.568 75.7049 277.183C75.5137 277.797 75.1316 278.334 74.6142 278.715C74.0968 279.096 73.4713 279.302 72.8289 279.302H59.4286L57.1188 274.524L56.217 279.302H51.1646L52.5838 262.241Z" fill="#0F172A"/>
<path d="M86.4726 64.7134L92.4825 71.4021L99.701 85.0307L96.1552 101.836L97.7055 109.722L99.9948 118.39C91.1738 123.278 80.6958 116.528 71.0698 113.53L61.5986 117.721L62.0995 106.183L62.3563 77.1129C62.3661 75.9963 62.605 74.8937 63.0581 73.8735C63.5111 72.8533 64.1686 71.9373 64.9899 71.1822C65.8111 70.4272 66.7786 69.8493 67.8321 69.4844C68.8856 69.1195 70.0027 68.9754 71.1142 69.061L77.4579 64.3789L86.4726 64.7134Z" fill="#CBD5E1"/>
<path d="M84.789 61.213C91.7877 61.213 97.4613 55.53 97.4613 48.5196C97.4613 41.5092 91.7877 35.8262 84.789 35.8262C77.7903 35.8262 72.1167 41.5092 72.1167 48.5196C72.1167 55.53 77.7903 61.213 84.789 61.213Z" fill="#9E616A"/>
<path d="M99.701 43.9375C99.4778 45.1812 94.143 45.7814 94.3036 43.5687C93.2657 45.652 91.7146 48.6753 93.6903 52.1384C92.9164 52.9827 92.4289 54.0504 92.2975 55.189C92.1661 56.3275 92.3975 57.4785 92.9585 58.4774C93.5207 59.3928 93.9917 60.3613 94.3647 61.3689C94.4399 61.6136 94.4936 61.8643 94.5253 62.1183C94.5571 62.3735 94.5197 62.6327 94.4172 62.8685C94.3146 63.1043 94.1505 63.3081 93.9422 63.4586C93.7339 63.6091 93.4891 63.7006 93.2333 63.7236C92.9775 63.7467 92.7203 63.7004 92.4885 63.5896C87.1146 60.9531 77.7432 61.3999 71.8641 63.0085C71.9033 61.8629 71.8876 60.7199 71.8171 59.5795C71.6025 61.0056 71.0282 62.3533 70.1485 63.495C69.1419 63.7932 68.1548 64.1031 67.1991 64.4092C67.0534 64.4565 66.8976 64.4633 66.7483 64.4289C66.599 64.3946 66.4617 64.3203 66.3512 64.214C66.2407 64.1078 66.161 63.9735 66.1207 63.8254C66.0803 63.6774 66.0808 63.5212 66.122 63.3734C66.3083 62.6962 66.3431 61.9862 66.2239 61.294C65.981 59.8581 65.2603 58.5594 64.7511 57.198C64.2419 55.8366 63.9521 54.2712 64.5749 52.9569C65.5423 50.9167 68.2684 50.2929 69.4709 48.3822C70.8222 46.2362 69.7725 43.4388 69.984 40.9082C70.2817 37.3301 73.2075 34.4229 76.5055 33.0184C82.2163 30.5859 89.3606 32.5558 93.6417 37.052C94.2422 36.6458 94.9433 36.4143 95.6672 36.3831C96.3911 36.352 97.1095 36.5224 97.7426 36.8754C99.0077 37.5541 99.9164 37.9073 100.484 39.2294C100.982 40.3907 99.9282 42.6898 99.701 43.9375Z" fill="#0F172A"/>
<path d="M94.2579 193.209L64.4434 163.345C64.0973 162.997 63.9028 162.526 63.9028 162.035C63.9028 161.544 64.0972 161.073 64.4434 160.726L85.2882 139.846C85.6352 139.499 86.1053 139.305 86.5954 139.305C87.0856 139.305 87.5557 139.499 87.9027 139.846L117.717 169.71C118.063 170.058 118.258 170.529 118.258 171.02C118.258 171.511 118.063 171.982 117.717 172.329L96.8723 193.209C96.5253 193.555 96.0552 193.75 95.5651 193.75C95.075 193.75 94.6049 193.555 94.2579 193.209Z" fill="white"/>
<path d="M95.565 194.245C95.2574 194.246 94.9525 194.186 94.6682 194.068C94.3839 193.95 94.1257 193.777 93.9087 193.559L64.0941 163.695C63.6552 163.255 63.4087 162.658 63.4087 162.036C63.4087 161.414 63.6552 160.817 64.0941 160.377L84.939 139.497C85.3785 139.057 85.9743 138.811 86.5954 138.811C87.2166 138.811 87.8123 139.057 88.2519 139.497L118.066 169.361C118.505 169.801 118.752 170.398 118.752 171.02C118.752 171.642 118.505 172.239 118.066 172.679L97.2213 193.559C97.0042 193.777 96.7461 193.95 96.4618 194.068C96.1774 194.186 95.8727 194.246 95.565 194.245ZM86.5953 139.8C86.4174 139.799 86.2412 139.834 86.0767 139.902C85.9123 139.97 85.7631 140.07 85.6376 140.197L64.7925 161.076C64.5389 161.331 64.3965 161.676 64.3965 162.036C64.3965 162.396 64.5389 162.741 64.7925 162.995L94.6071 192.859C94.8655 193.105 95.2084 193.243 95.565 193.243C95.9216 193.243 96.2645 193.105 96.5229 192.859L117.368 171.98C117.621 171.725 117.764 171.38 117.764 171.02C117.764 170.66 117.621 170.315 117.368 170.061L87.5532 140.197C87.4277 140.07 87.2784 139.97 87.114 139.902C86.9495 139.834 86.7732 139.799 86.5953 139.8Z" fill="#E6E6E6"/>
<path d="M83.0243 142.624C82.5252 141.984 82.1722 141.242 81.9902 140.451C81.8082 139.66 81.8016 138.838 81.9709 138.044C82.1402 137.25 82.4812 136.503 82.97 135.855C83.4588 135.208 84.0834 134.675 84.7999 134.295L85.269 84.4199L94.5753 88.6978L92.5284 136.934C93.0856 138.182 93.1664 139.592 92.7556 140.895C92.3447 142.199 91.4708 143.306 90.2993 144.008C89.1278 144.709 87.7401 144.955 86.3993 144.7C85.0585 144.445 83.8576 143.707 83.0243 142.624Z" fill="#9E616A"/>
<path d="M83.2749 71.7917C83.2749 71.7917 92.3279 67.393 93.5799 75.692C94.8319 83.991 99.9817 105.59 99.9817 105.59L84.3548 104.483L83.2749 71.7917Z" fill="#9E616A"/>
<path d="M83.0243 142.624C82.5252 141.984 82.1722 141.242 81.9902 140.451C81.8082 139.66 81.8016 138.838 81.9709 138.044C82.1402 137.25 82.4812 136.503 82.97 135.855C83.4588 135.208 84.0834 134.675 84.7999 134.295L85.269 84.4199L94.5753 88.6978L92.5284 136.934C93.0856 138.182 93.1664 139.592 92.7556 140.895C92.3447 142.199 91.4708 143.306 90.2993 144.008C89.1278 144.709 87.7401 144.955 86.3993 144.7C85.0585 144.445 83.8576 143.707 83.0243 142.624Z" fill="#9E616A"/>
<path d="M83.2749 71.7917C83.2749 71.7917 92.3279 67.393 93.5799 75.692C94.8319 83.991 99.9817 105.59 99.9817 105.59L84.3548 104.483L83.2749 71.7917Z" fill="#CBD5E1"/>
</g>
<defs>
<clipPath id="clip0_959_1837">
<rect width="272" height="281" fill="white"/>
</clipPath>
</defs>
</svg>
