<svg width="440" height="396" viewBox="0 0 440 396" fill="none" xmlns="http://www.w3.org/2000/svg">
<path d="M208.368 377.765C265.44 377.765 311.705 331.599 311.705 274.65C311.705 217.701 265.44 171.535 208.368 171.535C151.296 171.535 105.03 217.701 105.03 274.65C105.03 331.599 151.296 377.765 208.368 377.765Z" fill="#F1F5F9"/>
<path d="M193.77 396.001C247.928 396.001 291.832 390.016 291.832 382.633C291.832 375.25 247.928 369.266 193.77 369.266C139.611 369.266 95.707 375.25 95.707 382.633C95.707 390.016 139.611 396.001 193.77 396.001Z" fill="#334155"/>
<path d="M197.65 111.776C201.284 110.558 203.749 108.143 203.156 106.382C202.563 104.622 199.137 104.184 195.503 105.402C191.869 106.621 189.404 109.036 189.997 110.796C190.59 112.556 194.016 112.995 197.65 111.776Z" fill="#3F3D56"/>
<path d="M182.505 123.915L218.918 107.36C218.918 107.36 280.608 84.0921 333.381 140.888C333.381 140.888 309.73 125.739 291.803 145.751C291.803 145.751 258.069 136.644 229.76 170.104C229.76 170.104 185.484 176.795 167.043 200.242C167.043 200.242 146.484 197.087 138.301 223.093C138.261 223.22 138.189 223.335 138.091 223.426C137.994 223.518 137.875 223.583 137.745 223.615C137.615 223.647 137.479 223.646 137.35 223.61C137.221 223.575 137.104 223.508 137.008 223.414C136.895 223.303 136.818 223.161 136.788 223.005C136.02 218.986 126.978 165.372 182.505 123.915Z" fill="#CBD5E1"/>
<path opacity="0.2" d="M182.505 123.915L218.918 107.36C218.918 107.36 280.608 84.0921 333.381 140.888C333.381 140.888 309.73 125.739 291.803 145.751C291.803 145.751 258.069 136.644 229.76 170.104C229.76 170.104 185.484 176.795 167.043 200.242C167.043 200.242 146.484 197.087 138.301 223.093C138.261 223.22 138.189 223.335 138.091 223.426C137.994 223.518 137.875 223.583 137.745 223.615C137.615 223.647 137.479 223.646 137.35 223.61C137.221 223.575 137.104 223.508 137.008 223.414C136.895 223.303 136.818 223.161 136.788 223.005C136.02 218.986 126.978 165.372 182.505 123.915Z" fill="black"/>
<path d="M193.595 192.511L208.757 195.032L213.811 171.076L201.597 166.033L193.595 192.511Z" fill="#0F172A"/>
<path d="M214.443 187.678C221.654 187.678 227.5 181.845 227.5 174.65C227.5 167.454 221.654 161.621 214.443 161.621C207.232 161.621 201.387 167.454 201.387 174.65C201.387 181.845 207.232 187.678 214.443 187.678Z" fill="#A0616A"/>
<path d="M208.757 182.004C208.757 182.004 210.021 197.974 200.334 199.235C190.646 200.496 208.757 229.075 213.39 228.655C218.023 228.234 226.447 197.554 226.447 197.554C226.447 197.554 215.496 189.989 219.287 183.265L208.757 182.004Z" fill="#A0616A"/>
<path d="M192.542 240.212C192.542 240.212 194.226 252.4 199.28 252.4C204.335 252.4 195.911 238.531 195.911 238.531L192.542 240.212Z" fill="#A0616A"/>
<path d="M266.249 252.4C266.249 252.4 278.884 262.907 277.2 266.27C275.515 269.632 264.564 262.487 263.722 254.082L266.249 252.4Z" fill="#A0616A"/>
<path d="M190.015 292.746L182.012 322.586L173.167 358.73H181.591C181.591 358.73 184.539 347.382 190.015 341.498C190.015 341.498 195.49 332.252 195.49 325.948L208.547 295.268L190.015 292.746Z" fill="#A0616A"/>
<path d="M224.552 294.428L227.079 322.587C227.079 322.587 226.658 342.76 227.079 347.383C227.5 352.006 227.079 358.731 227.079 358.731H234.66C234.66 358.731 241.82 333.934 239.714 320.486L242.663 288.965L224.552 294.428Z" fill="#A0616A"/>
<path d="M214.443 217.097C214.443 217.097 203.096 208.123 206.032 195.589C206.032 195.589 194.648 196.083 190.015 200.706C185.382 205.329 191.278 220.879 191.278 220.879C191.278 220.879 201.387 237.69 199.702 245.255C198.017 252.82 179.906 292.746 185.803 295.268C191.699 297.79 227.5 306.615 245.611 291.906C245.611 291.906 250.244 250.298 231.712 236.85V226.343C231.712 226.343 235.081 223.401 233.397 215.836C233.397 215.836 240.557 202.807 236.345 200.285C232.133 197.764 222.458 194.068 222.458 194.068C222.458 194.068 223.288 212.894 214.443 217.097Z" fill="#0F172A"/>
<path d="M192.542 200.707C192.542 200.707 187.066 199.867 181.591 207.852C176.116 215.837 161.795 228.445 168.534 234.75C175.273 241.054 193.384 245.256 193.384 245.256L197.596 237.691L179.485 228.866L194.648 217.518L192.542 200.707Z" fill="#0F172A"/>
<path d="M234.239 200.707C234.239 200.707 240.135 200.707 242.663 207.852C245.19 214.996 259.931 239.372 259.931 239.372L268.355 252.401L262.458 259.125L246.032 240.633L230.448 214.996L234.239 200.707Z" fill="#0F172A"/>
<path d="M183.276 357.891H171.482L168.955 378.484C168.955 378.484 162.216 389.411 172.325 388.151C182.433 386.89 179.064 375.542 179.064 375.542L181.591 371.339L182.433 380.165L183.276 379.745V370.079C183.276 370.079 187.909 365.876 183.276 357.891Z" fill="#0F172A"/>
<path d="M236.766 357.889L225.815 357.049L223.709 380.584C223.709 380.584 222.446 389.41 230.027 388.149C237.608 386.888 235.081 379.744 235.081 379.744V366.715L236.766 357.889Z" fill="#0F172A"/>
<path d="M204.967 161.41C204.967 161.41 198.831 163.451 198.519 171.511C198.488 172.8 198.631 174.088 198.945 175.339C199.291 176.8 199.513 179.944 196.835 184.052C195.042 186.764 193.404 189.576 191.929 192.473L191.91 192.511L198.649 193.351L200.082 182.205C200.777 176.801 202.265 171.529 204.499 166.558L204.546 166.454C204.546 166.454 207.494 171.917 213.391 171.917L211.285 169.816C211.285 169.816 220.551 173.598 223.92 173.598C223.92 173.598 226.447 175.28 223.92 177.801C221.393 180.323 216.339 186.207 219.287 190.83C222.235 195.453 219.708 196.714 219.708 196.714L224.341 194.192L226.447 192.931V194.612L237.398 193.351C237.398 193.351 240.346 192.931 234.029 185.786C234.029 185.786 232.36 183.012 233.09 180.619C233.69 178.8 233.848 176.865 233.55 174.974C232.135 167.095 226.582 151.431 204.967 161.41Z" fill="#0F172A"/>
<path d="M270.829 265.525C274.997 261.296 270.381 252.538 270.02 251.872L222.423 154.887C222.277 154.594 222.021 154.37 221.711 154.265C221.401 154.16 221.061 154.181 220.767 154.325C220.473 154.469 220.247 154.723 220.141 155.033C220.034 155.342 220.054 155.681 220.197 155.975L267.818 253.008L267.831 253.032C267.879 253.119 272.474 261.829 268.381 264.324C263.973 267.014 258.833 262.657 258.781 262.612C258.658 262.506 258.515 262.425 258.361 262.373C258.206 262.322 258.043 262.302 257.88 262.313C257.718 262.325 257.559 262.369 257.413 262.441C257.268 262.514 257.138 262.615 257.032 262.738C256.925 262.861 256.844 263.004 256.793 263.158C256.742 263.313 256.722 263.476 256.734 263.638C256.746 263.8 256.789 263.958 256.863 264.103C256.936 264.248 257.038 264.378 257.161 264.484C257.427 264.713 263.74 270.055 269.674 266.434C270.095 266.18 270.483 265.874 270.829 265.525V265.525Z" fill="#3F3D56"/>
<path d="M179.1 116.96L214.367 100.926C214.367 100.926 274.115 78.3909 325.226 133.399C325.226 133.399 302.319 118.726 284.957 138.108C284.957 138.108 252.285 129.288 224.867 161.695C224.867 161.695 181.984 168.175 164.124 190.884C164.124 190.884 143.593 187.733 135.929 214.204L134.869 213.163C134.869 213.163 123.194 158.699 179.1 116.96Z" fill="#CBD5E1"/>
<path d="M179.274 116.861C179.274 116.861 162.006 174.859 164.112 190.83Z" fill="#3F3D56"/>
<path d="M197.525 108.584C197.525 108.584 219.287 157.628 224.762 161.831Z" fill="#3F3D56"/>
<path d="M214.233 100.891C214.233 100.891 270.25 134.513 284.992 138.295Z" fill="#3F3D56"/>
<path d="M130.015 380.4C129.913 380.235 127.527 376.258 126.699 368C125.94 360.424 126.428 347.654 133.065 329.84C145.639 296.094 130.168 268.865 130.009 268.594L130.773 268.152C130.813 268.221 134.805 275.163 137.163 286.218C140.28 300.873 139.145 316.112 133.892 330.147C121.34 363.836 130.672 379.784 130.768 379.941L130.015 380.4Z" fill="#334155"/>
<path d="M125.098 266.612C128.264 266.612 130.832 264.05 130.832 260.89C130.832 257.73 128.264 255.168 125.098 255.168C121.931 255.168 119.363 257.73 119.363 260.89C119.363 264.05 121.931 266.612 125.098 266.612Z" fill="#334155"/>
<path d="M143.182 287.739C146.349 287.739 148.917 285.177 148.917 282.017C148.917 278.857 146.349 276.295 143.182 276.295C140.016 276.295 137.448 278.857 137.448 282.017C137.448 285.177 140.016 287.739 143.182 287.739Z" fill="#334155"/>
<path d="M130.832 301.825C133.999 301.825 136.566 299.263 136.566 296.103C136.566 292.943 133.999 290.381 130.832 290.381C127.665 290.381 125.098 292.943 125.098 296.103C125.098 299.263 127.665 301.825 130.832 301.825Z" fill="#CBD5E1"/>
<path d="M145.829 313.707C148.996 313.707 151.564 311.146 151.564 307.986C151.564 304.825 148.996 302.264 145.829 302.264C142.663 302.264 140.095 304.825 140.095 307.986C140.095 311.146 142.663 313.707 145.829 313.707Z" fill="#CBD5E1"/>
<path d="M126.421 332.194C129.588 332.194 132.156 329.632 132.156 326.472C132.156 323.312 129.588 320.75 126.421 320.75C123.254 320.75 120.687 323.312 120.687 326.472C120.687 329.632 123.254 332.194 126.421 332.194Z" fill="#334155"/>
<path d="M133.479 380.611C133.479 380.611 127.744 366.526 144.947 355.963L133.479 380.611Z" fill="#334155"/>
<path d="M126.426 380.354C126.426 380.354 123.816 365.376 103.618 365.505L126.426 380.354Z" fill="#334155"/>
<path d="M91.5461 0L111.73 11.0193L72.6227 36.864L53.915 24.5495L91.5461 0Z" fill="#1E293B"/>
<path d="M43.008 35.0098L0 62.6766L19.9727 74.5214L62.9645 45.8828L43.008 35.0098Z" fill="#1E293B"/>
<path d="M50.9237 21.2782C48.6319 22.3918 46.6213 24.0069 45.0415 26.0031C43.4618 27.9994 42.3535 30.3254 41.7993 32.8082C41.5801 33.7117 41.6178 34.6583 41.908 35.5416C42.1983 36.425 42.7296 37.21 43.4424 37.8087L55.8758 48.2864C56.77 49.0384 57.8723 49.5012 59.0363 49.6132C60.2003 49.7253 61.3709 49.4813 62.3927 48.9138C67.4479 46.1165 75.5659 40.2446 71.941 32.8082C71.5358 31.9822 70.916 31.2798 70.1461 30.7741L56.2892 21.6307C55.5033 21.1103 54.5946 20.804 53.6534 20.7421C52.7123 20.6803 51.7712 20.8651 50.9237 21.2782V21.2782Z" fill="#CBD5E1"/>
<path d="M88.5854 54.3097C95.331 45.2693 95.8116 34.235 89.6589 29.6638C83.5061 25.0926 73.0499 28.7156 66.3043 37.7559C59.5587 46.7963 59.0781 57.8307 65.2309 62.4019C71.3837 66.9731 81.8398 63.3501 88.5854 54.3097Z" fill="#334155"/>
<path opacity="0.2" d="M71.1137 62.1682C73.6346 64.0422 79.6303 60.3479 85.02 53.7944C85.4973 53.215 85.9692 52.6134 86.4356 51.9896C86.7772 51.5313 87.1065 51.0731 87.4234 50.615C92.4208 43.4097 94.3962 36.3421 91.8151 34.4246C89.2149 32.4918 82.9235 36.4784 77.4081 43.4141C77.1001 43.8027 76.7952 44.199 76.4932 44.6032C75.4494 46 74.484 47.4535 73.6015 48.957C70.0468 55.0457 68.8913 60.5159 71.1137 62.1682Z" fill="black"/>
<path d="M73.6016 48.957L85.02 53.7943L93.1898 57.255L94.398 55.6278L87.4234 50.615L77.4082 43.4141C77.1002 43.8026 76.7952 44.199 76.4933 44.6032C75.4494 46 74.484 47.4535 73.6016 48.957V48.957Z" fill="#CBD5E1"/>
<path d="M95.4043 60.0313C96.775 60.0313 97.8862 58.9225 97.8862 57.5547C97.8862 56.1869 96.775 55.0781 95.4043 55.0781C94.0336 55.0781 92.9224 56.1869 92.9224 57.5547C92.9224 58.9225 94.0336 60.0313 95.4043 60.0313Z" fill="#CBD5E1"/>
<path d="M96.1327 83.7162C96.2906 83.5721 96.4847 83.4734 96.6943 83.4305C110.062 80.6743 118.474 72.9938 122.409 59.9509C122.5 59.6499 122.708 59.3972 122.985 59.2485C123.263 59.0998 123.589 59.0671 123.89 59.1578C124.192 59.2484 124.446 59.4549 124.595 59.7319C124.744 60.0089 124.777 60.3337 124.687 60.635C120.535 74.3955 111.279 82.8468 97.1754 85.7547C96.9203 85.8073 96.655 85.7748 96.4201 85.6623C96.1853 85.5497 95.994 85.3634 95.8756 85.1319C95.7572 84.9004 95.7182 84.6365 95.7647 84.3807C95.8111 84.125 95.9404 83.8915 96.1328 83.7162H96.1327Z" fill="#CBD5E1"/>
<path d="M92.8427 73.3899C93.0006 73.2457 93.1946 73.1469 93.4043 73.1041C103.428 71.0373 109.735 65.2788 112.685 55.4992C112.777 55.1983 112.984 54.9458 113.261 54.7972C113.539 54.6486 113.865 54.616 114.166 54.7066C114.468 54.7972 114.721 55.0036 114.871 55.2805C115.02 55.5573 115.053 55.882 114.963 56.1833C111.782 66.7258 104.691 73.2005 93.8854 75.4284C93.6303 75.4809 93.3649 75.4485 93.1301 75.3359C92.8953 75.2234 92.704 75.0371 92.5856 74.8056C92.4671 74.5741 92.4282 74.3102 92.4746 74.0544C92.5211 73.7987 92.6504 73.5652 92.8427 73.3899L92.8427 73.3899Z" fill="#CBD5E1"/>
<path d="M100.994 94.2901C101.151 94.1459 101.345 94.0471 101.555 94.0043C114.896 91.2538 129.485 77.9334 133.412 64.9172C133.503 64.6163 133.71 64.3638 133.988 64.2151C134.265 64.0665 134.591 64.034 134.893 64.1246C135.194 64.2152 135.448 64.4216 135.597 64.6985C135.746 64.9753 135.779 65.3 135.689 65.6012C131.541 79.3515 116.129 93.423 102.036 96.3286C101.781 96.3811 101.516 96.3487 101.281 96.2361C101.046 96.1236 100.855 95.9373 100.736 95.7058C100.618 95.4743 100.579 95.2104 100.626 94.9546C100.672 94.6989 100.801 94.4654 100.994 94.2901H100.994Z" fill="#CBD5E1"/>
<path d="M348.454 0L328.271 11.0193L367.377 36.864L386.085 24.5495L348.454 0Z" fill="#1E293B"/>
<path d="M396.992 35.0098L440 62.6766L420.027 74.5214L377.036 45.8828L396.992 35.0098Z" fill="#1E293B"/>
<path d="M389.076 21.2783C391.368 22.3918 393.379 24.0069 394.958 26.0031C396.538 27.9994 397.646 30.3254 398.201 32.8082C398.42 33.7117 398.382 34.6583 398.092 35.5416C397.802 36.425 397.27 37.21 396.558 37.8087L384.124 48.2864C383.23 49.0384 382.128 49.5012 380.964 49.6132C379.8 49.7253 378.629 49.4813 377.607 48.9138C372.552 46.1165 364.434 40.2446 368.059 32.8082C368.464 31.9822 369.084 31.2798 369.854 30.7741L383.711 21.6307C384.497 21.1103 385.405 20.804 386.346 20.7421C387.288 20.6803 388.229 20.8651 389.076 21.2783V21.2783Z" fill="#CBD5E1"/>
<path d="M374.769 62.4007C380.922 57.8295 380.441 46.7951 373.696 37.7548C366.95 28.7144 356.494 25.0914 350.341 29.6626C344.188 34.2338 344.669 45.2681 351.415 54.3085C358.16 63.3489 368.616 66.9719 374.769 62.4007Z" fill="#334155"/>
<path opacity="0.2" d="M368.886 62.1682C366.365 64.0422 360.369 60.3479 354.98 53.7944C354.502 53.215 354.03 52.6134 353.564 51.9896C353.222 51.5313 352.893 51.0731 352.576 50.615C347.579 43.4097 345.603 36.3421 348.185 34.4246C350.785 32.4918 357.076 36.4784 362.591 43.4141C362.899 43.8027 363.204 44.199 363.506 44.6032C364.55 46 365.516 47.4535 366.398 48.957C369.953 55.0457 371.108 60.5159 368.886 62.1682Z" fill="black"/>
<path d="M366.398 48.957L354.98 53.7943L346.81 57.2549L345.602 55.6278L352.577 50.615L362.592 43.4141C362.9 43.8026 363.205 44.199 363.507 44.6032C364.551 46 365.516 47.4535 366.398 48.957V48.957Z" fill="#CBD5E1"/>
<path d="M344.596 60.0313C345.966 60.0313 347.078 58.9225 347.078 57.5547C347.078 56.1869 345.966 55.0781 344.596 55.0781C343.225 55.0781 342.114 56.1869 342.114 57.5547C342.114 58.9225 343.225 60.0313 344.596 60.0313Z" fill="#CBD5E1"/>
<path d="M343.867 83.7162C343.709 83.5721 343.515 83.4734 343.306 83.4305C329.938 80.6743 321.526 72.9938 317.591 59.9509C317.5 59.6499 317.292 59.3972 317.015 59.2485C316.737 59.0998 316.411 59.0671 316.11 59.1578C315.808 59.2484 315.554 59.4549 315.405 59.7319C315.256 60.0089 315.223 60.3337 315.313 60.635C319.465 74.3955 328.721 82.8468 342.825 85.7547C343.08 85.8073 343.345 85.7748 343.58 85.6623C343.815 85.5497 344.006 85.3634 344.124 85.1319C344.243 84.9004 344.282 84.6365 344.235 84.3807C344.189 84.125 344.06 83.8915 343.867 83.7162H343.867Z" fill="#CBD5E1"/>
<path d="M347.157 73.3899C346.999 73.2457 346.805 73.1469 346.596 73.1041C336.572 71.0374 330.265 65.2788 327.315 55.4992C327.224 55.1983 327.016 54.9458 326.739 54.7972C326.461 54.6486 326.136 54.616 325.834 54.7066C325.532 54.7972 325.279 55.0036 325.129 55.2805C324.98 55.5573 324.947 55.882 325.037 56.1833C328.218 66.7258 335.309 73.2005 346.115 75.4284C346.37 75.4809 346.635 75.4485 346.87 75.3359C347.105 75.2234 347.296 75.0371 347.414 74.8056C347.533 74.5741 347.572 74.3102 347.525 74.0544C347.479 73.7987 347.35 73.5652 347.157 73.3899V73.3899Z" fill="#CBD5E1"/>
<path d="M339.006 94.2901C338.848 94.1459 338.654 94.0471 338.445 94.0043C325.104 91.2538 310.515 77.9334 306.588 64.9172C306.497 64.6163 306.29 64.3638 306.012 64.2151C305.734 64.0665 305.409 64.034 305.107 64.1246C304.806 64.2152 304.552 64.4216 304.403 64.6985C304.253 64.9753 304.22 65.3 304.311 65.6012C308.459 79.3515 323.87 93.423 337.964 96.3286C338.219 96.3811 338.484 96.3487 338.719 96.2361C338.954 96.1236 339.145 95.9373 339.263 95.7058C339.382 95.4743 339.421 95.2104 339.374 94.9546C339.328 94.6989 339.199 94.4654 339.006 94.2901V94.2901Z" fill="#CBD5E1"/>
</svg>
