<svg width="188" height="45" viewBox="0 0 188 45" fill="none" xmlns="http://www.w3.org/2000/svg">
<path fill-rule="evenodd" clip-rule="evenodd" d="M11.7068 7.44033V7.44077L12.3636 7.37197L12.9746 7.32308L13.7175 7.27894L14.9229 7.23351L16.2426 7.20885L17.6826 7.2002L18.6548 7.20366L19.6591 7.22572L20.4807 7.2612L21.2366 7.31269L22.2565 7.42086V7.42043L22.7147 7.48879L23.143 7.56711V7.56668L23.5389 7.65494V7.65538L23.9071 7.75403L24.2446 7.86263L24.6535 8.02402L24.9313 8.15858V8.15815L25.1814 8.30267L25.4111 8.45973L25.6803 8.68646L25.8551 8.86732L26.0126 9.06289L26.1528 9.27231L26.309 9.56566L26.4673 9.97152L26.5422 10.229L26.604 10.5016L26.6923 11.09L26.7386 11.6793L26.7546 12.1388L26.7576 12.8783L26.6923 15.7928L26.6871 17.3435L26.7239 18.4581L26.8212 19.7986L26.9666 21.1909L27.1994 22.9753L27.4395 24.5944L28.1734 29.2492L28.3495 30.4936H28.349L28.4568 31.3646L28.558 32.4286L28.6 33.3086L28.5983 33.7257L28.5849 34.0126L28.5502 34.3587L28.5104 34.5889L28.4157 34.9199L28.3434 35.0787L28.288 35.1683L28.1937 35.2799L28.0977 35.3539L28.047 35.3665L27.9735 35.3582L27.8104 35.2998L27.5776 35.1765L26.3094 34.383L25.9122 34.1627L25.6119 34.0191L25.2822 33.8919L24.9607 33.8084L24.7128 33.7811L24.467 33.7928L24.2862 33.8244L24.0517 33.8919L23.879 33.9598L23.654 34.0693L23.2417 34.315L22.3789 34.894L22.16 35.0242L21.9116 35.151L21.6896 35.241V35.2405L21.4582 35.3067L21.2855 35.3366L21.0765 35.3474L20.8935 35.3331L20.739 35.3024L20.5906 35.2579L20.3955 35.1774L20.0342 34.9753L19.1935 34.3812L18.8119 34.1424L18.5899 34.0338L18.3866 33.9598L18.1784 33.9109L18.0166 33.8932L17.8561 33.8945L17.654 33.9235L17.4589 33.9806L17.2698 34.0602L17.108 34.1454L16.8389 34.3172L16.1409 34.8364L15.7879 35.0683L15.5845 35.1739L15.3972 35.2479L15.2063 35.2977L15.064 35.3167L14.8407 35.3154L14.617 35.2817L14.3925 35.2172L14.1774 35.1298L13.9377 35.006L13.7257 34.8784L12.8924 34.3077L12.467 34.0489L12.2758 33.9542L12.0525 33.8651L11.8232 33.8023L11.6467 33.7746L11.3979 33.7681L11.0595 33.8162L10.7774 33.8936L10.4174 34.0295L10.163 34.1446L9.72989 34.3687L8.34185 35.18V35.1795L8.08744 35.3037L7.90787 35.363L7.82869 35.3695L7.77201 35.3548L7.67293 35.2782L7.59894 35.2033L7.41764 34.9537L7.24241 34.6201L7.04294 34.1208L6.84045 33.4657L6.66564 32.766L6.4506 31.7086L6.30349 30.8341L6.12609 29.5789H6.12652L5.97076 28.2393L5.83706 26.84L5.72543 25.4031L5.63586 23.9506L5.5688 22.5041L5.51644 20.741L5.5 19.3923L5.50606 18.1228L5.53764 16.8827L5.59086 15.6743L5.63673 14.9266L5.71677 13.9725L5.80937 13.1742H5.80893L5.89893 12.5845L6.0335 11.9021L6.1607 11.3994L6.30738 10.9338L6.4744 10.5042L6.66435 10.1061H6.66391L6.87636 9.74479L7.11433 9.41293L7.37957 9.11092L7.67509 8.8353L7.99874 8.58867L8.3518 8.36887L8.74122 8.17157L9.05707 8.0383L9.50663 7.8808V7.88124L9.99729 7.74321V7.74278L10.5247 7.62509L11.0954 7.52471L11.7068 7.44033ZM14.0883 16.627L14.2012 16.6564L14.2843 16.6932L14.3838 16.7564L14.4755 16.8373L14.5746 16.9528L14.6521 17.0688L14.72 17.196L14.8381 17.4963L14.9225 17.8303L14.9744 18.1868L14.9948 18.6541L14.9645 19.121L14.9043 19.4732L14.8122 19.7986L14.6858 20.0872L14.6127 20.2105L14.5327 20.3174L14.4535 20.4013L14.3583 20.4792L14.2579 20.5372L14.1731 20.5701L14.0896 20.59L13.9819 20.5986L13.8754 20.59L13.7629 20.5605L13.6798 20.5238L13.5803 20.4606L13.4886 20.3797L13.3895 20.2641L13.3121 20.1482L13.2437 20.021L13.126 19.7207L13.0416 19.3867L12.9897 19.0301L12.9694 18.5628L12.9997 18.0951L13.0598 17.7438L13.152 17.4184L13.2779 17.1294L13.3514 17.0065L13.4315 16.8996L13.5111 16.8152L13.6063 16.7378L13.7058 16.6798L13.7915 16.6465L13.8741 16.627L13.9819 16.6184L14.0883 16.627ZM22.16 16.627L22.2725 16.6564L22.3555 16.6932L22.4551 16.7564L22.5468 16.8373L22.6459 16.9528L22.7233 17.0688L22.7913 17.196L22.9094 17.4963L22.9937 17.8303L23.0457 18.1868L23.066 18.6541L23.0357 19.121L22.9756 19.4732L22.8834 19.7986L22.7575 20.0872L22.6839 20.2105L22.6039 20.3174L22.5247 20.4013L22.4291 20.4792L22.3296 20.5372L22.2439 20.5701L22.1608 20.59L22.0535 20.5986L21.9471 20.59L21.8342 20.5605L21.7511 20.5238L21.6516 20.4606L21.5598 20.3797L21.4608 20.2641L21.3833 20.1482L21.3154 20.021L21.1973 19.7207L21.1129 19.3867L21.061 19.0301L21.0406 18.5628L21.0709 18.0951L21.1311 17.7438L21.2232 17.4184L21.3496 17.1294L21.4227 17.0065L21.5027 16.8996L21.5823 16.8152L21.6771 16.7378L21.7775 16.6798L21.8627 16.6465L21.9458 16.627L22.0535 16.6184L22.16 16.627Z" fill="#F8FAFC" stroke="#0F172A" stroke-width="2" stroke-linecap="round"/>
<path d="M44.42 33V23.55H42.2V19.83H44.42V15.27C44.42 13.55 44.91 12.15 45.89 11.07C46.89 9.97 48.33 9.42 50.21 9.42C50.77 9.42 51.39 9.51 52.07 9.69C52.77 9.85 53.38 10.12 53.9 10.5L52.13 13.53C51.93 13.27 51.69 13.1 51.41 13.02C51.15 12.92 50.9 12.87 50.66 12.87C50.06 12.87 49.57 13.07 49.19 13.47C48.81 13.87 48.62 14.51 48.62 15.39V19.83H52.58V23.55H48.62V33H44.42ZM60.8089 33.36C59.5889 33.36 58.4789 33.12 57.4789 32.64C56.4989 32.14 55.7189 31.38 55.1389 30.36C54.5589 29.34 54.2689 28.04 54.2689 26.46C54.2689 24.98 54.5689 23.7 55.1689 22.62C55.7689 21.54 56.5589 20.71 57.5389 20.13C58.5189 19.53 59.5589 19.23 60.6589 19.23C61.9589 19.23 62.9389 19.45 63.5989 19.89C64.2789 20.31 64.8389 20.78 65.2789 21.3L65.0989 21.81L65.4889 19.89H69.3889V33H65.1889V30.15L65.5189 31.05C65.4789 31.05 65.3589 31.17 65.1589 31.41C64.9589 31.63 64.6589 31.9 64.2589 32.22C63.8789 32.52 63.3989 32.78 62.8189 33C62.2589 33.24 61.5889 33.36 60.8089 33.36ZM62.0089 29.94C62.7689 29.94 63.4089 29.78 63.9289 29.46C64.4489 29.12 64.8689 28.62 65.1889 27.96V24.75C64.9489 24.11 64.5289 23.6 63.9289 23.22C63.3489 22.84 62.6589 22.65 61.8589 22.65C61.2589 22.65 60.6989 22.81 60.1789 23.13C59.6789 23.43 59.2789 23.85 58.9789 24.39C58.6789 24.93 58.5289 25.55 58.5289 26.25C58.5289 26.95 58.6889 27.58 59.0089 28.14C59.3289 28.7 59.7489 29.14 60.2689 29.46C60.8089 29.78 61.3889 29.94 62.0089 29.94ZM77.5266 19.89L77.8566 22.23L77.7966 22.02C78.2566 21.2 78.9066 20.54 79.7466 20.04C80.5866 19.52 81.6166 19.26 82.8366 19.26C84.0766 19.26 85.1066 19.63 85.9266 20.37C86.7666 21.09 87.1966 22.03 87.2166 23.19V33H83.0166V24.75C82.9966 24.17 82.8366 23.71 82.5366 23.37C82.2566 23.01 81.7766 22.83 81.0966 22.83C80.1166 22.83 79.3366 23.29 78.7566 24.21C78.1966 25.11 77.9166 26.26 77.9166 27.66V33H73.7166V19.89H77.5266ZM92.7591 14.13H96.9591V19.83H100.139V23.1H96.9591V33H92.7591V23.1H90.7191V19.83H92.7591V14.13ZM102.316 26.28C102.316 24.94 102.626 23.74 103.246 22.68C103.886 21.62 104.776 20.79 105.916 20.19C107.056 19.57 108.366 19.26 109.846 19.26C111.346 19.26 112.646 19.57 113.746 20.19C114.846 20.79 115.686 21.62 116.266 22.68C116.866 23.74 117.166 24.94 117.166 26.28C117.166 27.62 116.866 28.83 116.266 29.91C115.686 30.97 114.846 31.81 113.746 32.43C112.646 33.05 111.326 33.36 109.786 33.36C108.346 33.36 107.056 33.08 105.916 32.52C104.796 31.96 103.916 31.15 103.276 30.09C102.636 29.03 102.316 27.76 102.316 26.28ZM106.546 26.31C106.546 26.99 106.686 27.61 106.966 28.17C107.246 28.71 107.626 29.14 108.106 29.46C108.586 29.78 109.126 29.94 109.726 29.94C110.706 29.94 111.486 29.6 112.066 28.92C112.646 28.22 112.936 27.35 112.936 26.31C112.936 25.27 112.646 24.41 112.066 23.73C111.486 23.03 110.706 22.68 109.726 22.68C109.126 22.68 108.586 22.84 108.106 23.16C107.626 23.48 107.246 23.91 106.966 24.45C106.686 24.99 106.546 25.61 106.546 26.31ZM124.284 19.89L124.614 22.2L124.554 22.02C125.074 21.14 125.724 20.46 126.504 19.98C127.284 19.48 128.224 19.23 129.324 19.23C130.384 19.23 131.274 19.45 131.994 19.89C132.714 20.33 133.184 21.01 133.404 21.93L133.254 21.96C133.814 21.14 134.484 20.48 135.264 19.98C136.064 19.48 136.894 19.23 137.754 19.23C139.054 19.23 140.084 19.6 140.844 20.34C141.624 21.06 142.024 22 142.044 23.16V33H137.874V24.9C137.854 24.32 137.764 23.85 137.604 23.49C137.444 23.11 137.074 22.9 136.494 22.86C135.814 22.86 135.234 23.1 134.754 23.58C134.294 24.04 133.944 24.64 133.704 25.38C133.484 26.1 133.374 26.85 133.374 27.63V33H129.174V24.9C129.154 24.32 129.044 23.85 128.844 23.49C128.664 23.11 128.284 22.9 127.704 22.86C127.044 22.86 126.484 23.1 126.024 23.58C125.584 24.04 125.244 24.63 125.004 25.35C124.784 26.07 124.674 26.81 124.674 27.57V33H120.474V19.89H124.284ZM152.823 33.36C151.223 33.36 149.863 33.06 148.743 32.46C147.643 31.86 146.803 31.03 146.223 29.97C145.643 28.91 145.353 27.69 145.353 26.31C145.353 24.99 145.693 23.8 146.373 22.74C147.053 21.68 147.963 20.84 149.103 20.22C150.243 19.58 151.513 19.26 152.913 19.26C154.793 19.26 156.333 19.81 157.533 20.91C158.753 21.99 159.543 23.56 159.903 25.62L149.703 28.86L148.773 26.58L156.153 24.09L155.283 24.48C155.123 23.96 154.833 23.51 154.413 23.13C154.013 22.73 153.403 22.53 152.583 22.53C151.643 22.53 150.893 22.85 150.333 23.49C149.773 24.13 149.493 24.99 149.493 26.07C149.493 27.29 149.823 28.22 150.483 28.86C151.143 29.48 151.953 29.79 152.913 29.79C153.373 29.79 153.813 29.71 154.233 29.55C154.673 29.39 155.103 29.18 155.523 28.92L157.383 32.04C156.683 32.44 155.923 32.76 155.103 33C154.303 33.24 153.543 33.36 152.823 33.36ZM162.955 9.33H167.155V33H162.955V9.33ZM172.53 39.3L181.26 19.89H185.04L176.58 39.3H172.53ZM176.04 33.06L169.62 19.89H174.33L179.28 30.96L176.04 33.06Z" fill="#0F172A"/>
</svg>
