<svg width="33" height="33" viewBox="0 0 33 33" fill="none" xmlns="http://www.w3.org/2000/svg">
<path fill-rule="evenodd" clip-rule="evenodd" d="M11.7068 2.44033V2.44077L12.3636 2.37197L12.9746 2.32308L13.7175 2.27894L14.9229 2.23351L16.2426 2.20885L17.6826 2.2002L18.6548 2.20366L19.6591 2.22572L20.4807 2.2612L21.2366 2.31269L22.2565 2.42086V2.42043L22.7147 2.48879L23.143 2.56711V2.56668L23.5389 2.65494V2.65538L23.9071 2.75403L24.2446 2.86263L24.6535 3.02402L24.9313 3.15858V3.15815L25.1814 3.30267L25.4111 3.45973L25.6803 3.68646L25.8551 3.86732L26.0126 4.06289L26.1528 4.27231L26.309 4.56566L26.4673 4.97152L26.5422 5.22897L26.604 5.50155L26.6923 6.09L26.7386 6.67931L26.7546 7.13882L26.7576 7.87827L26.6923 10.7928L26.6871 12.3435L26.7239 13.4581L26.8212 14.7986L26.9666 16.1909L27.1994 17.9753L27.4395 19.5944L28.1734 24.2492L28.3495 25.4936H28.349L28.4568 26.3646L28.558 27.4286L28.6 28.3086L28.5983 28.7257L28.5849 29.0126L28.5502 29.3587L28.5104 29.5889L28.4157 29.9199L28.3434 30.0787L28.288 30.1683L28.1937 30.2799L28.0977 30.3539L28.047 30.3665L27.9735 30.3582L27.8104 30.2998L27.5776 30.1765L26.3094 29.383L25.9122 29.1627L25.6119 29.0191L25.2822 28.8919L24.9607 28.8084L24.7128 28.7811L24.467 28.7928L24.2862 28.8244L24.0517 28.8919L23.879 28.9598L23.654 29.0693L23.2417 29.315L22.3789 29.894L22.16 30.0242L21.9116 30.151L21.6896 30.241V30.2405L21.4582 30.3067L21.2855 30.3366L21.0765 30.3474L20.8935 30.3331L20.739 30.3024L20.5906 30.2579L20.3955 30.1774L20.0342 29.9753L19.1935 29.3812L18.8119 29.1424L18.5899 29.0338L18.3866 28.9598L18.1784 28.9109L18.0166 28.8932L17.8561 28.8945L17.654 28.9235L17.4589 28.9806L17.2698 29.0602L17.108 29.1454L16.8389 29.3172L16.1409 29.8364L15.7879 30.0683L15.5845 30.1739L15.3972 30.2479L15.2063 30.2977L15.064 30.3167L14.8407 30.3154L14.617 30.2817L14.3925 30.2172L14.1774 30.1298L13.9377 30.006L13.7257 29.8784L12.8924 29.3077L12.467 29.0489L12.2758 28.9542L12.0525 28.8651L11.8232 28.8023L11.6467 28.7746L11.3979 28.7681L11.0595 28.8162L10.7774 28.8936L10.4174 29.0295L10.163 29.1446L9.72989 29.3687L8.34185 30.18V30.1795L8.08744 30.3037L7.90787 30.363L7.82869 30.3695L7.77201 30.3548L7.67293 30.2782L7.59894 30.2033L7.41764 29.9537L7.24241 29.6201L7.04294 29.1208L6.84045 28.4657L6.66564 27.766L6.4506 26.7086L6.30349 25.8341L6.12609 24.5789H6.12652L5.97076 23.2393L5.83706 21.84L5.72543 20.4031L5.63586 18.9506L5.5688 17.5041L5.51644 15.741L5.5 14.3923L5.50606 13.1228L5.53764 11.8827L5.59086 10.6743L5.63673 9.92659L5.71677 8.97253L5.80937 8.17423H5.80893L5.89893 7.58448L6.0335 6.90214L6.1607 6.39937L6.30738 5.9338L6.4744 5.50415L6.66435 5.10608H6.66391L6.87636 4.74479L7.11433 4.41293L7.37957 4.11092L7.67509 3.8353L7.99874 3.58867L8.3518 3.36887L8.74122 3.17157L9.05707 3.0383L9.50663 2.8808V2.88124L9.99729 2.74321V2.74278L10.5247 2.62509L11.0954 2.52471L11.7068 2.44033ZM14.0883 11.627L14.2012 11.6564L14.2843 11.6932L14.3838 11.7564L14.4755 11.8373L14.5746 11.9528L14.6521 12.0688L14.72 12.196L14.8381 12.4963L14.9225 12.8303L14.9744 13.1868L14.9948 13.6541L14.9645 14.121L14.9043 14.4732L14.8122 14.7986L14.6858 15.0872L14.6127 15.2105L14.5327 15.3174L14.4535 15.4013L14.3583 15.4792L14.2579 15.5372L14.1731 15.5701L14.0896 15.59L13.9819 15.5986L13.8754 15.59L13.7629 15.5605L13.6798 15.5238L13.5803 15.4606L13.4886 15.3797L13.3895 15.2641L13.3121 15.1482L13.2437 15.021L13.126 14.7207L13.0416 14.3867L12.9897 14.0301L12.9694 13.5628L12.9997 13.0951L13.0598 12.7438L13.152 12.4184L13.2779 12.1294L13.3514 12.0065L13.4315 11.8996L13.5111 11.8152L13.6063 11.7378L13.7058 11.6798L13.7915 11.6465L13.8741 11.627L13.9819 11.6184L14.0883 11.627ZM22.16 11.627L22.2725 11.6564L22.3555 11.6932L22.4551 11.7564L22.5468 11.8373L22.6459 11.9528L22.7233 12.0688L22.7913 12.196L22.9094 12.4963L22.9937 12.8303L23.0457 13.1868L23.066 13.6541L23.0357 14.121L22.9756 14.4732L22.8834 14.7986L22.7575 15.0872L22.6839 15.2105L22.6039 15.3174L22.5247 15.4013L22.4291 15.4792L22.3296 15.5372L22.2439 15.5701L22.1608 15.59L22.0535 15.5986L21.9471 15.59L21.8342 15.5605L21.7511 15.5238L21.6516 15.4606L21.5598 15.3797L21.4608 15.2641L21.3833 15.1482L21.3154 15.021L21.1973 14.7207L21.1129 14.3867L21.061 14.0301L21.0406 13.5628L21.0709 13.0951L21.1311 12.7438L21.2232 12.4184L21.3496 12.1294L21.4227 12.0065L21.5027 11.8996L21.5823 11.8152L21.6771 11.7378L21.7775 11.6798L21.8627 11.6465L21.9458 11.627L22.0535 11.6184L22.16 11.627Z" fill="#F8FAFC" stroke="#0F172A" stroke-width="2" stroke-linecap="round"/>
</svg>
